G04*
G04 #@! TF.GenerationSoftware,Altium Limited,Altium Designer,21.9.2 (33)*
G04*
G04 Layer_Color=8421504*
%FSLAX25Y25*%
%MOIN*%
G70*
G04*
G04 #@! TF.SameCoordinates,66518ADA-414C-4047-A028-89B1228E7E92*
G04*
G04*
G04 #@! TF.FilePolarity,Positive*
G04*
G01*
G75*
%ADD21R,0.01968X0.03543*%
%ADD22R,0.01968X0.01968*%
%ADD23R,0.05000X0.05000*%
%ADD24R,0.05000X0.05000*%
%ADD25R,0.07087X0.10827*%
%ADD26R,0.08661X0.08661*%
G04:AMPARAMS|DCode=27|XSize=60mil|YSize=50mil|CornerRadius=0mil|HoleSize=0mil|Usage=FLASHONLY|Rotation=90.000|XOffset=0mil|YOffset=0mil|HoleType=Round|Shape=Octagon|*
%AMOCTAGOND27*
4,1,8,0.01250,0.03000,-0.01250,0.03000,-0.02500,0.01750,-0.02500,-0.01750,-0.01250,-0.03000,0.01250,-0.03000,0.02500,-0.01750,0.02500,0.01750,0.01250,0.03000,0.0*
%
%ADD27OCTAGOND27*%

%ADD28R,0.05000X0.06000*%
%ADD29R,0.06299X0.01575*%
%ADD30R,0.03937X0.01772*%
%ADD31O,0.05512X0.00900*%
%ADD32O,0.00900X0.05512*%
%ADD33O,0.05512X0.00900*%
%ADD34R,0.05512X0.00900*%
%ADD35O,0.00900X0.05512*%
%ADD36O,0.02400X0.08000*%
%ADD37R,0.05906X0.02362*%
%ADD38R,0.03150X0.05512*%
%ADD39R,0.07874X0.05906*%
%ADD40R,0.07874X0.03150*%
%ADD41R,0.07874X0.03347*%
%ADD42R,0.07874X0.05906*%
%ADD43R,0.07874X0.07874*%
%ADD44R,0.07874X0.05512*%
%ADD45R,0.08000X0.06000*%
%ADD46R,0.04800X0.05600*%
%ADD47R,0.04000X0.05500*%
G04:AMPARAMS|DCode=48|XSize=60mil|YSize=50mil|CornerRadius=0mil|HoleSize=0mil|Usage=FLASHONLY|Rotation=180.000|XOffset=0mil|YOffset=0mil|HoleType=Round|Shape=Octagon|*
%AMOCTAGOND48*
4,1,8,-0.03000,0.01250,-0.03000,-0.01250,-0.01750,-0.02500,0.01750,-0.02500,0.03000,-0.01250,0.03000,0.01250,0.01750,0.02500,-0.01750,0.02500,-0.03000,0.01250,0.0*
%
%ADD48OCTAGOND48*%

%ADD49R,0.06000X0.05000*%
%ADD50R,0.01181X0.05906*%
%ADD51R,0.11811X0.09843*%
%ADD52R,0.05500X0.04000*%
D21*
X26898Y169228D02*
D03*
D22*
Y177496D02*
D03*
D23*
X156500Y370500D02*
D03*
Y379500D02*
D03*
X338000Y277000D02*
D03*
Y268000D02*
D03*
X355000Y149500D02*
D03*
Y158500D02*
D03*
X84000Y342000D02*
D03*
Y351000D02*
D03*
X88000Y214500D02*
D03*
Y205500D02*
D03*
X110000Y214500D02*
D03*
Y205500D02*
D03*
X21000Y64500D02*
D03*
Y55500D02*
D03*
X215000Y247500D02*
D03*
Y238500D02*
D03*
X351000Y302500D02*
D03*
Y311500D02*
D03*
X175400Y379500D02*
D03*
Y370500D02*
D03*
X184400D02*
D03*
Y379500D02*
D03*
X165500Y370500D02*
D03*
Y379500D02*
D03*
X191000Y247500D02*
D03*
Y238500D02*
D03*
X207000D02*
D03*
Y247500D02*
D03*
X126000Y154500D02*
D03*
Y163500D02*
D03*
D24*
X314500Y359000D02*
D03*
X323500D02*
D03*
X320000Y268000D02*
D03*
X329000D02*
D03*
X147000Y365000D02*
D03*
X138000D02*
D03*
X127500Y217000D02*
D03*
X118500D02*
D03*
X186500Y222000D02*
D03*
X195500D02*
D03*
X118500Y229000D02*
D03*
X127500D02*
D03*
X118500Y205000D02*
D03*
X127500D02*
D03*
X234500Y51600D02*
D03*
X243500D02*
D03*
X234500Y41700D02*
D03*
X243500D02*
D03*
X234500Y31800D02*
D03*
X243500D02*
D03*
X234500Y21900D02*
D03*
X243500D02*
D03*
X234500Y12000D02*
D03*
X243500D02*
D03*
X234500Y91200D02*
D03*
X243500D02*
D03*
X234500Y81300D02*
D03*
X243500D02*
D03*
X234500Y101100D02*
D03*
X243500D02*
D03*
X234500Y71400D02*
D03*
X243500D02*
D03*
X234500Y61500D02*
D03*
X243500D02*
D03*
X234500Y111000D02*
D03*
X243500D02*
D03*
X294000Y359000D02*
D03*
X303000D02*
D03*
X294000Y347000D02*
D03*
X303000D02*
D03*
X314500D02*
D03*
X323500D02*
D03*
X314500Y214000D02*
D03*
X323500D02*
D03*
X314500Y225000D02*
D03*
X323500D02*
D03*
X293500Y214000D02*
D03*
X302500D02*
D03*
X293500Y225000D02*
D03*
X302500D02*
D03*
X14500Y108000D02*
D03*
X23500D02*
D03*
X14500Y98000D02*
D03*
X23500D02*
D03*
X14500Y88000D02*
D03*
X23500D02*
D03*
X14500Y78000D02*
D03*
X23500D02*
D03*
X93000Y333000D02*
D03*
X84000D02*
D03*
Y324000D02*
D03*
X93000D02*
D03*
X101200Y182000D02*
D03*
X92200D02*
D03*
X142500Y144000D02*
D03*
X133500D02*
D03*
X127500Y190000D02*
D03*
X118500D02*
D03*
X195500Y214000D02*
D03*
X186500D02*
D03*
D25*
X363945Y331827D02*
D03*
X374772Y360173D02*
D03*
X341110Y333402D02*
D03*
X347606Y360173D02*
D03*
X364945Y197827D02*
D03*
X375772Y226173D02*
D03*
X342110Y199402D02*
D03*
X348606Y226173D02*
D03*
D26*
X345500Y101689D02*
D03*
Y125311D02*
D03*
D27*
X345000Y159500D02*
D03*
D28*
Y149500D02*
D03*
D29*
X369402Y150382D02*
D03*
Y158059D02*
D03*
Y160618D02*
D03*
Y155500D02*
D03*
Y152941D02*
D03*
D30*
X138071Y377000D02*
D03*
X147000Y380740D02*
D03*
Y373260D02*
D03*
D31*
X140354Y203740D02*
D03*
Y201772D02*
D03*
Y199803D02*
D03*
Y197835D02*
D03*
Y195866D02*
D03*
Y193898D02*
D03*
Y191929D02*
D03*
Y189961D02*
D03*
Y187992D02*
D03*
Y186024D02*
D03*
X174606Y186024D02*
D03*
Y187992D02*
D03*
Y189961D02*
D03*
Y191929D02*
D03*
Y193898D02*
D03*
Y195866D02*
D03*
Y197835D02*
D03*
Y199803D02*
D03*
Y201772D02*
D03*
Y203740D02*
D03*
Y205709D02*
D03*
X140354D02*
D03*
D32*
X146653Y179724D02*
D03*
X148622D02*
D03*
X150591D02*
D03*
X152559D02*
D03*
X158465D02*
D03*
X156496D02*
D03*
X160433D02*
D03*
X162401D02*
D03*
X154527D02*
D03*
X164370D02*
D03*
X166339D02*
D03*
X168307D02*
D03*
X148622Y213976D02*
D03*
X150591D02*
D03*
X152559D02*
D03*
X154527D02*
D03*
X156496D02*
D03*
X158465D02*
D03*
X160433D02*
D03*
X162401D02*
D03*
X164370D02*
D03*
X166339D02*
D03*
X168307D02*
D03*
D33*
X174606Y207677D02*
D03*
D34*
X140354Y207677D02*
D03*
D35*
X146653Y213976D02*
D03*
D36*
X41500Y65500D02*
D03*
X31500Y34500D02*
D03*
Y65500D02*
D03*
X36500D02*
D03*
X41500Y34500D02*
D03*
X46500Y65500D02*
D03*
X36500Y34500D02*
D03*
X46500D02*
D03*
D37*
X376642Y122858D02*
D03*
Y116953D02*
D03*
Y105142D02*
D03*
D38*
X379579Y128370D02*
D03*
X389421D02*
D03*
Y99630D02*
D03*
X379579D02*
D03*
D39*
X97269Y89921D02*
D03*
X128500Y90000D02*
D03*
X302731Y166079D02*
D03*
X271500Y166000D02*
D03*
X302731Y147079D02*
D03*
X271500Y147000D02*
D03*
X302731Y185079D02*
D03*
X271500Y185000D02*
D03*
X302731Y109079D02*
D03*
X271500Y109000D02*
D03*
X302731Y128079D02*
D03*
X271500Y128000D02*
D03*
X302731Y71079D02*
D03*
X271500Y71000D02*
D03*
X302731Y14079D02*
D03*
X271500Y14000D02*
D03*
X302731Y33079D02*
D03*
X271500Y33000D02*
D03*
X302731Y52079D02*
D03*
X271500Y52000D02*
D03*
X302731Y90079D02*
D03*
X271500Y90000D02*
D03*
X25575Y302000D02*
D03*
X128500Y17000D02*
D03*
X97269Y16921D02*
D03*
X172500Y17000D02*
D03*
X203731Y17079D02*
D03*
X172500Y65667D02*
D03*
X203731Y65745D02*
D03*
X172500Y90000D02*
D03*
X203731Y90079D02*
D03*
X128500Y41333D02*
D03*
X97269Y41255D02*
D03*
X128500Y65667D02*
D03*
X97269Y65588D02*
D03*
X172500Y41333D02*
D03*
X203731Y41412D02*
D03*
D40*
X67307Y341173D02*
D03*
X67307Y332512D02*
D03*
X67307Y354165D02*
D03*
X67307Y358496D02*
D03*
X67307Y328181D02*
D03*
X67307Y336842D02*
D03*
X67307Y345504D02*
D03*
Y349835D02*
D03*
D41*
X67307Y323654D02*
D03*
D42*
X63370Y364795D02*
D03*
D43*
Y304756D02*
D03*
D44*
X25575Y363024D02*
D03*
D45*
X360376Y104612D02*
D03*
X360300Y122100D02*
D03*
D46*
X135500Y163500D02*
D03*
X142500D02*
D03*
Y154500D02*
D03*
X135500D02*
D03*
D47*
X127500Y182000D02*
D03*
X118500D02*
D03*
D48*
X34000Y108000D02*
D03*
Y98000D02*
D03*
Y88000D02*
D03*
Y78000D02*
D03*
D49*
X44000Y108000D02*
D03*
Y98000D02*
D03*
Y88000D02*
D03*
Y78000D02*
D03*
D50*
X194547Y355000D02*
D03*
X191398D02*
D03*
X188248D02*
D03*
X185099D02*
D03*
X181949D02*
D03*
X178799D02*
D03*
X175650D02*
D03*
X172500D02*
D03*
X169351D02*
D03*
X166201D02*
D03*
X163051D02*
D03*
X159902D02*
D03*
X156752D02*
D03*
X153603D02*
D03*
D51*
X144146Y348505D02*
D03*
X203988D02*
D03*
D52*
X199000Y247000D02*
D03*
Y238000D02*
D03*
X110200Y173000D02*
D03*
Y182000D02*
D03*
M02*
