G04*
G04 #@! TF.GenerationSoftware,Altium Limited,Altium Designer,21.9.2 (33)*
G04*
G04 Layer_Physical_Order=2*
G04 Layer_Color=32768*
%FSLAX25Y25*%
%MOIN*%
G70*
G04*
G04 #@! TF.SameCoordinates,66518ADA-414C-4047-A028-89B1228E7E92*
G04*
G04*
G04 #@! TF.FilePolarity,Negative*
G04*
G01*
G75*
%ADD129C,0.04000*%
%ADD130R,0.20000X0.20500*%
%ADD131C,0.07543*%
G04:AMPARAMS|DCode=132|XSize=95.433mil|YSize=95.433mil|CornerRadius=0mil|HoleSize=0mil|Usage=FLASHONLY|Rotation=0.000|XOffset=0mil|YOffset=0mil|HoleType=Round|Shape=Relief|Width=10mil|Gap=10mil|Entries=4|*
%AMTHD132*
7,0,0,0.09543,0.07543,0.01000,45*
%
%ADD132THD132*%
%ADD133C,0.10299*%
%AMTHOVALD134*
21,1,0.02362,0.07969,0,0,180.0*
1,1,0.07969,0.01181,0.00000*
1,1,0.07969,-0.01181,0.00000*
21,0,0.02362,0.05969,0,0,180.0*
1,0,0.05969,0.01181,0.00000*
1,0,0.05969,-0.01181,0.00000*
4,0,4,0.00828,0.00354,0.03645,0.03171,0.04352,0.02464,0.01535,-0.00354,0.00828,0.00354,0.0*
4,0,4,-0.01535,0.00354,-0.04352,-0.02464,-0.03645,-0.03171,-0.00828,-0.00354,-0.01535,0.00354,0.0*
4,0,4,0.01535,0.00354,0.04352,-0.02464,0.03645,-0.03171,0.00828,-0.00354,0.01535,0.00354,0.0*
4,0,4,-0.00828,0.00354,-0.03645,0.03171,-0.04352,0.02464,-0.01535,-0.00354,-0.00828,0.00354,0.0*
%
%ADD134THOVALD134*%

G04:AMPARAMS|DCode=135|XSize=79.685mil|YSize=79.685mil|CornerRadius=0mil|HoleSize=0mil|Usage=FLASHONLY|Rotation=0.000|XOffset=0mil|YOffset=0mil|HoleType=Round|Shape=Relief|Width=10mil|Gap=10mil|Entries=4|*
%AMTHD135*
7,0,0,0.07969,0.05969,0.01000,45*
%
%ADD135THD135*%
%ADD136C,0.09000*%
%ADD137C,0.05969*%
%ADD138C,0.07150*%
G04:AMPARAMS|DCode=139|XSize=103.307mil|YSize=103.307mil|CornerRadius=0mil|HoleSize=0mil|Usage=FLASHONLY|Rotation=0.000|XOffset=0mil|YOffset=0mil|HoleType=Round|Shape=Relief|Width=10mil|Gap=10mil|Entries=4|*
%AMTHD139*
7,0,0,0.10331,0.08331,0.01000,45*
%
%ADD139THD139*%
%ADD140C,0.08331*%
G04:AMPARAMS|DCode=141|XSize=146.614mil|YSize=146.614mil|CornerRadius=0mil|HoleSize=0mil|Usage=FLASHONLY|Rotation=0.000|XOffset=0mil|YOffset=0mil|HoleType=Round|Shape=Relief|Width=10mil|Gap=10mil|Entries=4|*
%AMTHD141*
7,0,0,0.14661,0.12661,0.01000,45*
%
%ADD141THD141*%
%ADD142C,0.06559*%
G04:AMPARAMS|DCode=143|XSize=85.591mil|YSize=85.591mil|CornerRadius=0mil|HoleSize=0mil|Usage=FLASHONLY|Rotation=0.000|XOffset=0mil|YOffset=0mil|HoleType=Round|Shape=Relief|Width=10mil|Gap=10mil|Entries=4|*
%AMTHD143*
7,0,0,0.08559,0.06559,0.01000,45*
%
%ADD143THD143*%
%ADD144C,0.16598*%
%ADD145C,0.05200*%
G36*
X0Y269000D02*
X37000D01*
Y176000D01*
X29500D01*
Y148500D01*
X0D01*
Y269000D01*
D02*
G37*
D129*
Y0D02*
Y393701D01*
X393701Y0D02*
Y143701D01*
X389764Y147638D02*
X393701Y143701D01*
X389764Y147638D02*
Y163386D01*
X393701Y167323D01*
Y393701D01*
X0D02*
X393701D01*
X0Y0D02*
X393701D01*
D130*
X240000Y274750D02*
D03*
D131*
X63000Y108000D02*
D03*
X86000Y280000D02*
D03*
X76000D02*
D03*
X26000D02*
D03*
X16000D02*
D03*
X199000D02*
D03*
Y270000D02*
D03*
X189000Y280000D02*
D03*
Y270000D02*
D03*
X179000Y280000D02*
D03*
Y270000D02*
D03*
X168971Y280000D02*
D03*
Y270000D02*
D03*
X159000Y280000D02*
D03*
Y270000D02*
D03*
X149000D02*
D03*
Y280000D02*
D03*
X138971D02*
D03*
Y270000D02*
D03*
X128971Y280000D02*
D03*
Y270000D02*
D03*
X145000Y88000D02*
D03*
Y78000D02*
D03*
Y68000D02*
D03*
Y58000D02*
D03*
Y48000D02*
D03*
Y38000D02*
D03*
Y28000D02*
D03*
Y18000D02*
D03*
X63000Y38000D02*
D03*
Y48000D02*
D03*
Y58000D02*
D03*
Y68000D02*
D03*
Y78000D02*
D03*
Y88000D02*
D03*
Y98000D02*
D03*
X66000Y259000D02*
D03*
Y239000D02*
D03*
Y229000D02*
D03*
Y219000D02*
D03*
Y209000D02*
D03*
Y189000D02*
D03*
X198000Y111000D02*
D03*
X208000D02*
D03*
X159000Y305000D02*
D03*
X24000Y352000D02*
D03*
X24000Y320504D02*
D03*
X279000Y298000D02*
D03*
Y308000D02*
D03*
Y318000D02*
D03*
Y328000D02*
D03*
Y348000D02*
D03*
Y358000D02*
D03*
X208000Y122000D02*
D03*
X198000D02*
D03*
X188000D02*
D03*
X178000D02*
D03*
X168000D02*
D03*
X158000D02*
D03*
X148000D02*
D03*
X138000D02*
D03*
X236000Y134000D02*
D03*
Y144000D02*
D03*
Y154000D02*
D03*
Y164000D02*
D03*
Y174000D02*
D03*
Y184000D02*
D03*
Y194000D02*
D03*
Y204000D02*
D03*
X373000Y312000D02*
D03*
Y292000D02*
D03*
X245931Y214529D02*
D03*
X235931D02*
D03*
X245962Y225029D02*
D03*
X235962D02*
D03*
D132*
X66000Y280000D02*
D03*
X56000D02*
D03*
X46000D02*
D03*
X36000D02*
D03*
X66000Y249000D02*
D03*
Y199000D02*
D03*
X149000Y305000D02*
D03*
X279000Y338000D02*
D03*
Y368000D02*
D03*
X373000Y302000D02*
D03*
D133*
Y346000D02*
D03*
X349378D02*
D03*
X374000Y212000D02*
D03*
X350378D02*
D03*
D134*
X382000Y141228D02*
D03*
Y169772D02*
D03*
D135*
X371331Y165047D02*
D03*
Y145953D02*
D03*
D136*
X240000Y275000D02*
D03*
D137*
X102937Y205000D02*
D03*
X95063D02*
D03*
D138*
X384500Y119905D02*
D03*
Y108095D02*
D03*
D139*
X340500Y70842D02*
D03*
D140*
Y61000D02*
D03*
Y53126D02*
D03*
Y43284D02*
D03*
D141*
X350874Y82850D02*
D03*
Y31276D02*
D03*
D142*
X372000Y268000D02*
D03*
D143*
Y258000D02*
D03*
D144*
X15748Y377953D02*
D03*
X377953D02*
D03*
Y15748D02*
D03*
X15748D02*
D03*
D145*
X149000Y198000D02*
D03*
X146000Y202500D02*
D03*
X342000Y143000D02*
D03*
X245000Y118000D02*
D03*
X242000Y121000D02*
D03*
X97000Y29000D02*
D03*
Y54000D02*
D03*
Y78000D02*
D03*
X23000Y48000D02*
D03*
X19000D02*
D03*
X101000Y331000D02*
D03*
Y334000D02*
D03*
X186500Y347000D02*
D03*
X179500D02*
D03*
X128500Y211500D02*
D03*
X124000D02*
D03*
X127000Y223000D02*
D03*
X130000D02*
D03*
X123500D02*
D03*
X145700Y194700D02*
D03*
X130500Y367000D02*
D03*
Y363000D02*
D03*
X304700Y284800D02*
D03*
X360800Y249100D02*
D03*
X330300Y277100D02*
D03*
X350000Y135000D02*
D03*
Y139000D02*
D03*
X342000Y135000D02*
D03*
X346000D02*
D03*
X342000Y139000D02*
D03*
X346000D02*
D03*
Y143000D02*
D03*
X174900Y173200D02*
D03*
X171000Y176000D02*
D03*
M02*
