M48
;Layer_Color=9474304
;FILE_FORMAT=2:5
INCH,TZ
;TYPE=PLATED
T1F00S00C0.01200
T2F00S00C0.01968
T4F00S00C0.02559
T5F00S00C0.03543
T6F00S00C0.04331
T7F00S00C0.05000
T8F00S00C0.08661
;TYPE=NON_PLATED
T9F00S00C0.03150
T10F00S00C0.03543
T11F00S00C0.06299
T12F00S00C0.12598
%
T01
X7000Y47000
Y58000
Y68000
Y78000
Y88000
Y98000
Y108000
Y118000
Y128000
Y138000
Y146000
X15000
X23500
X32000
Y153000
X129600Y149200
X138000Y148800
X147700Y148700
X149000Y154000
X148500Y142100
X143100Y137400
X136800Y137800
X97000Y78000
Y54000
Y29000
X53100Y31800
X53200Y38500
X23000Y48000
X19000
X196000Y44000
Y20000
Y68000
Y92000
X245000Y118000
X242000Y121000
X294000Y112000
X295000Y93000
Y74000
X293000Y52000
X294000Y36000
Y17000
X295000Y131000
Y150000
X342000Y143000
Y139000
Y135000
X346000
X350000
Y139000
X346000
Y143000
X349000Y93000
X342000
X336000Y96000
X355000
X360800Y249100
X330300Y277100
X304700Y284800
X290000Y183000
X295000Y169000
X174900Y173200
X171000Y176000
X164000Y191000
X155000
Y204000
X164000
X199000Y255000
X215000
X137500Y233000
X130000Y223000
X127000
X123500
X124000Y211500
X128500
X119000Y211000
X116000
X110000Y224000
Y234000
Y245000
X99000
X88000
Y234000
Y224000
X99000
Y215000
Y234000
X80000Y212000
X81000Y181000
Y174000
X88000
X95000Y175000
X102000
X117600Y174300
X122600Y170200
X128700Y170300
X134900Y170600
X133300Y176700
X126000Y175600
X136800Y182100
X143600Y177900
X140500Y172700
X144000Y167000
X130700Y158300
X120100Y158700
X118400Y164900
X110000Y166000
X113000Y189000
X106000
X99000
X92000
X86000Y185000
X74000Y181000
Y174000
X67000
X60000
X53000
X46000
X39000
X32000
Y167000
Y160000
X39000Y181000
Y188000
Y195000
Y202000
Y209000
Y216000
Y224000
Y231000
Y238000
Y245000
Y252000
Y258500
Y264500
Y271000
X31000
X23000
X15000
X6500
Y279000
Y287500
Y296000
X14000Y301000
X46000Y181000
X53000
X60000
X67000
X145700Y194700
X149000Y198000
X146000Y202500
X148000Y357500
X142000
X136000
X130500Y363000
Y367000
X73000Y365000
X76000Y352500
Y346500
X101000Y334000
Y331000
X93000Y316000
X85000
X14000Y314000
Y326000
Y339000
Y351000
Y364000
X54000Y365000
X164500Y347000
X172000
X179500
X186500
X180000Y388500
X171000
X161500
T02
X371331Y145953
Y165047
X102937Y205000
X95063
T04
X372000Y258000
Y268000
T05
X63000Y38000
Y48000
Y58000
Y68000
Y78000
Y88000
Y98000
Y108000
X138000Y122000
X148000
X145000Y88000
Y78000
Y68000
Y58000
Y48000
Y38000
Y28000
Y18000
X158000Y122000
X168000
X178000
X188000
X198000
X208000
Y111000
X198000
X236000Y134000
Y144000
Y154000
X373000Y292000
Y302000
Y312000
X279000Y308000
Y298000
X199000Y280000
Y270000
X189000
Y280000
X179000
Y270000
X168971
X159000
Y280000
X168971
X159000Y305000
X235962Y225029
X245962
X245931Y214529
X235931
X236000Y204000
Y194000
Y184000
Y174000
Y164000
X149000Y270000
Y280000
X138971
Y270000
X128971
Y280000
X86000
X76000
X66000
X56000
X46000
X36000
X26000
X16000
X66000Y259000
Y249000
Y239000
Y229000
Y219000
Y209000
Y199000
Y189000
X149000Y305000
X279000Y318000
Y328000
Y338000
Y348000
Y358000
Y368000
T06
X340500Y43284
Y53126
Y61000
Y70842
T07
X240000Y275000
T08
X350874Y31276
Y82850
T09
X384500Y108095
Y119905
T10
X24000Y320504
X24000Y352000
T11
X350378Y212000
X374000
X373000Y346000
X349378
T12
X15748Y15748
X377953
X15748Y377953
X377953
M30
