G04*
G04 #@! TF.GenerationSoftware,Altium Limited,Altium Designer,21.9.2 (33)*
G04*
G04 Layer_Physical_Order=4*
G04 Layer_Color=16711680*
%FSLAX25Y25*%
%MOIN*%
G70*
G04*
G04 #@! TF.SameCoordinates,66518ADA-414C-4047-A028-89B1228E7E92*
G04*
G04*
G04 #@! TF.FilePolarity,Positive*
G04*
G01*
G75*
%ADD11C,0.01200*%
%ADD42R,0.07874X0.05906*%
%ADD98C,0.02400*%
%ADD100C,0.04800*%
%ADD118C,0.05906*%
%ADD119C,0.03937*%
%ADD120R,0.03937X0.03150*%
%ADD121C,0.07000*%
%ADD122C,0.03150*%
%ADD123C,0.06000*%
%ADD124C,0.10630*%
%ADD125C,0.05248*%
%ADD126C,0.03543*%
%ADD127R,0.05906X0.05906*%
%ADD128C,0.02400*%
%ADD149R,0.13000X0.13000*%
G36*
X255906Y382598D02*
X255444Y382406D01*
X254425Y383425D01*
X253715Y383970D01*
X252888Y384313D01*
X252000Y384429D01*
X57000D01*
X56112Y384313D01*
X55285Y383970D01*
X54575Y383425D01*
X37575Y366425D01*
X37030Y365715D01*
X36687Y364888D01*
X36571Y364000D01*
Y305000D01*
X36687Y304112D01*
X37030Y303285D01*
X37575Y302575D01*
X50575Y289575D01*
X51285Y289030D01*
X52112Y288687D01*
X53000Y288571D01*
X71556D01*
X72359Y287768D01*
Y281599D01*
X72317Y281526D01*
X72047Y280520D01*
Y279480D01*
X72317Y278474D01*
X72837Y277573D01*
X73573Y276837D01*
X74474Y276317D01*
X75480Y276047D01*
X76520D01*
X77526Y276317D01*
X77966Y276571D01*
X84034D01*
X84474Y276317D01*
X85480Y276047D01*
X86520D01*
X87526Y276317D01*
X88427Y276837D01*
X89163Y277573D01*
X89683Y278474D01*
X89953Y279480D01*
Y280520D01*
X89683Y281526D01*
X89163Y282427D01*
X88427Y283163D01*
X87526Y283683D01*
X86520Y283953D01*
X85480D01*
X84474Y283683D01*
X84034Y283429D01*
X79218D01*
Y289188D01*
X79101Y290076D01*
X78758Y290903D01*
X78213Y291613D01*
X75402Y294425D01*
X74691Y294970D01*
X73864Y295312D01*
X72977Y295429D01*
X54421D01*
X43429Y306420D01*
Y362579D01*
X58420Y377571D01*
X128257D01*
Y367000D01*
Y363000D01*
X128300Y362783D01*
Y362562D01*
X128384Y362358D01*
X128428Y362142D01*
X128550Y361958D01*
X128635Y361754D01*
X128791Y361598D01*
X128914Y361414D01*
X129098Y361291D01*
X129254Y361135D01*
X129458Y361050D01*
X129642Y360928D01*
X129858Y360884D01*
X130062Y360800D01*
X130283D01*
X130500Y360757D01*
X130717Y360800D01*
X130938D01*
X131142Y360884D01*
X131358Y360928D01*
X131542Y361050D01*
X131746Y361135D01*
X131902Y361291D01*
X132086Y361414D01*
X132209Y361598D01*
X132365Y361754D01*
X132450Y361958D01*
X132572Y362142D01*
X132615Y362358D01*
X132700Y362562D01*
Y362783D01*
X132743Y363000D01*
Y367000D01*
Y377571D01*
X250580D01*
X255906Y372245D01*
Y240158D01*
X260571Y235492D01*
Y221000D01*
X260687Y220112D01*
X261030Y219285D01*
X261575Y218575D01*
X338980Y141170D01*
Y132000D01*
X339058Y131610D01*
X339279Y131279D01*
X339610Y131058D01*
X340000Y130980D01*
X353000D01*
X353390Y131058D01*
X353721Y131279D01*
X353942Y131610D01*
X354020Y132000D01*
Y145000D01*
X353942Y145390D01*
X353721Y145721D01*
X353390Y145942D01*
X353000Y146020D01*
X343830D01*
X267429Y222421D01*
Y227980D01*
X267891Y228172D01*
X311024Y185039D01*
X391458D01*
Y168252D01*
X388178Y164972D01*
X387691Y164244D01*
X387521Y163386D01*
Y147638D01*
X387691Y146779D01*
X388178Y146052D01*
X391458Y142772D01*
Y2243D01*
X2243D01*
Y148500D01*
X29500D01*
Y176000D01*
X37000D01*
Y269000D01*
X2243D01*
Y391458D01*
X255906D01*
Y382598D01*
D02*
G37*
%LPC*%
G36*
X16467Y385252D02*
X15029D01*
X13619Y384971D01*
X12291Y384421D01*
X11095Y383622D01*
X10078Y382606D01*
X9280Y381410D01*
X8729Y380082D01*
X8449Y378672D01*
Y377234D01*
X8729Y375824D01*
X9280Y374495D01*
X10078Y373300D01*
X11095Y372283D01*
X12291Y371484D01*
X13619Y370934D01*
X15029Y370654D01*
X16467D01*
X17877Y370934D01*
X19206Y371484D01*
X20401Y372283D01*
X21418Y373300D01*
X22217Y374495D01*
X22767Y375824D01*
X23047Y377234D01*
Y378672D01*
X22767Y380082D01*
X22217Y381410D01*
X21418Y382606D01*
X20401Y383622D01*
X19206Y384421D01*
X17877Y384971D01*
X16467Y385252D01*
D02*
G37*
G36*
X24365Y354772D02*
X23635D01*
X22930Y354583D01*
X22298Y354218D01*
X21782Y353702D01*
X21417Y353070D01*
X21228Y352365D01*
Y351635D01*
X21417Y350930D01*
X21782Y350298D01*
X22298Y349782D01*
X22930Y349417D01*
X23635Y349228D01*
X24365D01*
X25070Y349417D01*
X25702Y349782D01*
X26218Y350298D01*
X26583Y350930D01*
X26772Y351635D01*
Y352365D01*
X26583Y353070D01*
X26218Y353702D01*
X25702Y354218D01*
X25070Y354583D01*
X24365Y354772D01*
D02*
G37*
G36*
X186938Y349200D02*
X186062D01*
X185254Y348865D01*
X184635Y348246D01*
X184300Y347438D01*
Y346562D01*
X184635Y345754D01*
X185254Y345135D01*
X186062Y344800D01*
X186938D01*
X187746Y345135D01*
X188365Y345754D01*
X188700Y346562D01*
Y347438D01*
X188365Y348246D01*
X187746Y348865D01*
X186938Y349200D01*
D02*
G37*
G36*
X179938D02*
X179062D01*
X178254Y348865D01*
X177635Y348246D01*
X177300Y347438D01*
Y346562D01*
X177635Y345754D01*
X178254Y345135D01*
X179062Y344800D01*
X179938D01*
X180746Y345135D01*
X181365Y345754D01*
X181700Y346562D01*
Y347438D01*
X181365Y348246D01*
X180746Y348865D01*
X179938Y349200D01*
D02*
G37*
G36*
X101438Y336200D02*
X100562D01*
X99754Y335865D01*
X99135Y335246D01*
X98800Y334438D01*
Y333562D01*
X99135Y332754D01*
X99389Y332500D01*
X99135Y332246D01*
X98800Y331438D01*
Y330562D01*
X99135Y329754D01*
X99754Y329135D01*
X100562Y328800D01*
X101438D01*
X102246Y329135D01*
X102865Y329754D01*
X103200Y330562D01*
Y331438D01*
X102865Y332246D01*
X102611Y332500D01*
X102865Y332754D01*
X103200Y333562D01*
Y334438D01*
X102865Y335246D01*
X102246Y335865D01*
X101438Y336200D01*
D02*
G37*
G36*
X24365Y323276D02*
X23635D01*
X22930Y323087D01*
X22298Y322722D01*
X21782Y322206D01*
X21417Y321574D01*
X21228Y320869D01*
Y320139D01*
X21417Y319434D01*
X21782Y318802D01*
X22298Y318286D01*
X22930Y317921D01*
X23635Y317732D01*
X24365D01*
X25070Y317921D01*
X25702Y318286D01*
X26218Y318802D01*
X26583Y319434D01*
X26772Y320139D01*
Y320869D01*
X26583Y321574D01*
X26218Y322206D01*
X25702Y322722D01*
X25070Y323087D01*
X24365Y323276D01*
D02*
G37*
G36*
X149520Y308953D02*
X149500D01*
Y305500D01*
X152953D01*
Y305520D01*
X152683Y306526D01*
X152163Y307427D01*
X151427Y308163D01*
X150526Y308683D01*
X149520Y308953D01*
D02*
G37*
G36*
X148500D02*
X148480D01*
X147474Y308683D01*
X146573Y308163D01*
X145837Y307427D01*
X145317Y306526D01*
X145047Y305520D01*
Y305500D01*
X148500D01*
Y308953D01*
D02*
G37*
G36*
X159520D02*
X158480D01*
X157474Y308683D01*
X156573Y308163D01*
X155837Y307427D01*
X155317Y306526D01*
X155047Y305520D01*
Y304480D01*
X155317Y303474D01*
X155837Y302573D01*
X156573Y301837D01*
X157474Y301317D01*
X158480Y301047D01*
X159520D01*
X160526Y301317D01*
X161427Y301837D01*
X162163Y302573D01*
X162683Y303474D01*
X162953Y304480D01*
Y305520D01*
X162683Y306526D01*
X162163Y307427D01*
X161427Y308163D01*
X160526Y308683D01*
X159520Y308953D01*
D02*
G37*
G36*
X152953Y304500D02*
X149500D01*
Y301047D01*
X149520D01*
X150526Y301317D01*
X151427Y301837D01*
X152163Y302573D01*
X152683Y303474D01*
X152953Y304480D01*
Y304500D01*
D02*
G37*
G36*
X148500D02*
X145047D01*
Y304480D01*
X145317Y303474D01*
X145837Y302573D01*
X146573Y301837D01*
X147474Y301317D01*
X148480Y301047D01*
X148500D01*
Y304500D01*
D02*
G37*
G36*
X36520Y283953D02*
X36500D01*
Y280500D01*
X39953D01*
Y280520D01*
X39683Y281526D01*
X39163Y282427D01*
X38427Y283163D01*
X37526Y283683D01*
X36520Y283953D01*
D02*
G37*
G36*
X66520D02*
X66500D01*
Y280500D01*
X69953D01*
Y280520D01*
X69683Y281526D01*
X69163Y282427D01*
X68427Y283163D01*
X67526Y283683D01*
X66520Y283953D01*
D02*
G37*
G36*
X46520D02*
X46500D01*
Y280500D01*
X49953D01*
Y280520D01*
X49683Y281526D01*
X49163Y282427D01*
X48427Y283163D01*
X47526Y283683D01*
X46520Y283953D01*
D02*
G37*
G36*
X56520D02*
X56500D01*
Y280500D01*
X59953D01*
Y280520D01*
X59683Y281526D01*
X59163Y282427D01*
X58427Y283163D01*
X57526Y283683D01*
X56520Y283953D01*
D02*
G37*
G36*
X35500D02*
X35480D01*
X34474Y283683D01*
X33573Y283163D01*
X32837Y282427D01*
X32317Y281526D01*
X32047Y280520D01*
Y280500D01*
X35500D01*
Y283953D01*
D02*
G37*
G36*
X65500D02*
X65480D01*
X64474Y283683D01*
X63573Y283163D01*
X62837Y282427D01*
X62317Y281526D01*
X62047Y280520D01*
Y280500D01*
X65500D01*
Y283953D01*
D02*
G37*
G36*
X45500D02*
X45480D01*
X44474Y283683D01*
X43573Y283163D01*
X42837Y282427D01*
X42317Y281526D01*
X42047Y280520D01*
Y280500D01*
X45500D01*
Y283953D01*
D02*
G37*
G36*
X55500D02*
X55480D01*
X54474Y283683D01*
X53573Y283163D01*
X52837Y282427D01*
X52317Y281526D01*
X52047Y280520D01*
Y280500D01*
X55500D01*
Y283953D01*
D02*
G37*
G36*
X199520D02*
X198480D01*
X197474Y283683D01*
X196573Y283163D01*
X195837Y282427D01*
X195317Y281526D01*
X195047Y280520D01*
Y279480D01*
X195317Y278474D01*
X195837Y277573D01*
X196573Y276837D01*
X197474Y276317D01*
X198480Y276047D01*
X199520D01*
X200526Y276317D01*
X201427Y276837D01*
X202163Y277573D01*
X202683Y278474D01*
X202953Y279480D01*
Y280520D01*
X202683Y281526D01*
X202163Y282427D01*
X201427Y283163D01*
X200526Y283683D01*
X199520Y283953D01*
D02*
G37*
G36*
X189520D02*
X188480D01*
X187474Y283683D01*
X186573Y283163D01*
X185837Y282427D01*
X185317Y281526D01*
X185047Y280520D01*
Y279480D01*
X185317Y278474D01*
X185837Y277573D01*
X186573Y276837D01*
X187474Y276317D01*
X188480Y276047D01*
X189520D01*
X190526Y276317D01*
X191427Y276837D01*
X192163Y277573D01*
X192683Y278474D01*
X192953Y279480D01*
Y280520D01*
X192683Y281526D01*
X192163Y282427D01*
X191427Y283163D01*
X190526Y283683D01*
X189520Y283953D01*
D02*
G37*
G36*
X179520D02*
X178480D01*
X177474Y283683D01*
X176573Y283163D01*
X175837Y282427D01*
X175317Y281526D01*
X175047Y280520D01*
Y279480D01*
X175317Y278474D01*
X175837Y277573D01*
X176573Y276837D01*
X177474Y276317D01*
X178480Y276047D01*
X179520D01*
X180526Y276317D01*
X181427Y276837D01*
X182163Y277573D01*
X182683Y278474D01*
X182953Y279480D01*
Y280520D01*
X182683Y281526D01*
X182163Y282427D01*
X181427Y283163D01*
X180526Y283683D01*
X179520Y283953D01*
D02*
G37*
G36*
X169491D02*
X168450D01*
X167445Y283683D01*
X166544Y283163D01*
X165808Y282427D01*
X165287Y281526D01*
X165018Y280520D01*
Y279480D01*
X165287Y278474D01*
X165808Y277573D01*
X166544Y276837D01*
X167445Y276317D01*
X168450Y276047D01*
X169491D01*
X170497Y276317D01*
X171398Y276837D01*
X172134Y277573D01*
X172654Y278474D01*
X172924Y279480D01*
Y280520D01*
X172654Y281526D01*
X172134Y282427D01*
X171398Y283163D01*
X170497Y283683D01*
X169491Y283953D01*
D02*
G37*
G36*
X159520D02*
X158480D01*
X157474Y283683D01*
X156573Y283163D01*
X155837Y282427D01*
X155317Y281526D01*
X155047Y280520D01*
Y279480D01*
X155317Y278474D01*
X155837Y277573D01*
X156573Y276837D01*
X157474Y276317D01*
X158480Y276047D01*
X159520D01*
X160526Y276317D01*
X161427Y276837D01*
X162163Y277573D01*
X162683Y278474D01*
X162953Y279480D01*
Y280520D01*
X162683Y281526D01*
X162163Y282427D01*
X161427Y283163D01*
X160526Y283683D01*
X159520Y283953D01*
D02*
G37*
G36*
X149520D02*
X148480D01*
X147474Y283683D01*
X146573Y283163D01*
X145837Y282427D01*
X145317Y281526D01*
X145047Y280520D01*
Y279480D01*
X145317Y278474D01*
X145837Y277573D01*
X146573Y276837D01*
X147474Y276317D01*
X148480Y276047D01*
X149520D01*
X150526Y276317D01*
X151427Y276837D01*
X152163Y277573D01*
X152683Y278474D01*
X152953Y279480D01*
Y280520D01*
X152683Y281526D01*
X152163Y282427D01*
X151427Y283163D01*
X150526Y283683D01*
X149520Y283953D01*
D02*
G37*
G36*
X139491D02*
X138451D01*
X137445Y283683D01*
X136544Y283163D01*
X135808Y282427D01*
X135287Y281526D01*
X135018Y280520D01*
Y279480D01*
X135287Y278474D01*
X135808Y277573D01*
X136544Y276837D01*
X137445Y276317D01*
X138451Y276047D01*
X139491D01*
X140497Y276317D01*
X141398Y276837D01*
X142134Y277573D01*
X142654Y278474D01*
X142924Y279480D01*
Y280520D01*
X142654Y281526D01*
X142134Y282427D01*
X141398Y283163D01*
X140497Y283683D01*
X139491Y283953D01*
D02*
G37*
G36*
X129491D02*
X128451D01*
X127445Y283683D01*
X126544Y283163D01*
X125808Y282427D01*
X125287Y281526D01*
X125018Y280520D01*
Y279480D01*
X125287Y278474D01*
X125808Y277573D01*
X126544Y276837D01*
X127445Y276317D01*
X128451Y276047D01*
X129491D01*
X130497Y276317D01*
X131398Y276837D01*
X132134Y277573D01*
X132654Y278474D01*
X132924Y279480D01*
Y280520D01*
X132654Y281526D01*
X132134Y282427D01*
X131398Y283163D01*
X130497Y283683D01*
X129491Y283953D01*
D02*
G37*
G36*
X69953Y279500D02*
X66500D01*
Y276047D01*
X66520D01*
X67526Y276317D01*
X68427Y276837D01*
X69163Y277573D01*
X69683Y278474D01*
X69953Y279480D01*
Y279500D01*
D02*
G37*
G36*
X65500D02*
X62047D01*
Y279480D01*
X62317Y278474D01*
X62837Y277573D01*
X63573Y276837D01*
X64474Y276317D01*
X65480Y276047D01*
X65500D01*
Y279500D01*
D02*
G37*
G36*
X59953D02*
X56500D01*
Y276047D01*
X56520D01*
X57526Y276317D01*
X58427Y276837D01*
X59163Y277573D01*
X59683Y278474D01*
X59953Y279480D01*
Y279500D01*
D02*
G37*
G36*
X55500D02*
X52047D01*
Y279480D01*
X52317Y278474D01*
X52837Y277573D01*
X53573Y276837D01*
X54474Y276317D01*
X55480Y276047D01*
X55500D01*
Y279500D01*
D02*
G37*
G36*
X49953D02*
X46500D01*
Y276047D01*
X46520D01*
X47526Y276317D01*
X48427Y276837D01*
X49163Y277573D01*
X49683Y278474D01*
X49953Y279480D01*
Y279500D01*
D02*
G37*
G36*
X45500D02*
X42047D01*
Y279480D01*
X42317Y278474D01*
X42837Y277573D01*
X43573Y276837D01*
X44474Y276317D01*
X45480Y276047D01*
X45500D01*
Y279500D01*
D02*
G37*
G36*
X39953D02*
X36500D01*
Y276047D01*
X36520D01*
X37526Y276317D01*
X38427Y276837D01*
X39163Y277573D01*
X39683Y278474D01*
X39953Y279480D01*
Y279500D01*
D02*
G37*
G36*
X35500D02*
X32047D01*
Y279480D01*
X32317Y278474D01*
X32837Y277573D01*
X33573Y276837D01*
X34474Y276317D01*
X35480Y276047D01*
X35500D01*
Y279500D01*
D02*
G37*
G36*
X26520Y283953D02*
X25480D01*
X24474Y283683D01*
X23573Y283163D01*
X22837Y282427D01*
X22317Y281526D01*
X22047Y280520D01*
Y279480D01*
X22317Y278474D01*
X22837Y277573D01*
X23573Y276837D01*
X24474Y276317D01*
X25480Y276047D01*
X26520D01*
X27526Y276317D01*
X28427Y276837D01*
X29163Y277573D01*
X29683Y278474D01*
X29953Y279480D01*
Y280520D01*
X29683Y281526D01*
X29163Y282427D01*
X28427Y283163D01*
X27526Y283683D01*
X26520Y283953D01*
D02*
G37*
G36*
X16520D02*
X15480D01*
X14474Y283683D01*
X13573Y283163D01*
X12837Y282427D01*
X12317Y281526D01*
X12047Y280520D01*
Y279480D01*
X12317Y278474D01*
X12837Y277573D01*
X13573Y276837D01*
X14474Y276317D01*
X15480Y276047D01*
X16520D01*
X17526Y276317D01*
X18427Y276837D01*
X19163Y277573D01*
X19683Y278474D01*
X19953Y279480D01*
Y280520D01*
X19683Y281526D01*
X19163Y282427D01*
X18427Y283163D01*
X17526Y283683D01*
X16520Y283953D01*
D02*
G37*
G36*
X199520Y273953D02*
X198480D01*
X197474Y273683D01*
X196573Y273163D01*
X195837Y272427D01*
X195317Y271526D01*
X195047Y270520D01*
Y269480D01*
X195317Y268474D01*
X195837Y267573D01*
X196573Y266837D01*
X197474Y266317D01*
X198480Y266047D01*
X199520D01*
X200526Y266317D01*
X201427Y266837D01*
X202163Y267573D01*
X202683Y268474D01*
X202953Y269480D01*
Y270520D01*
X202683Y271526D01*
X202163Y272427D01*
X201427Y273163D01*
X200526Y273683D01*
X199520Y273953D01*
D02*
G37*
G36*
X189520D02*
X188480D01*
X187474Y273683D01*
X186573Y273163D01*
X185837Y272427D01*
X185317Y271526D01*
X185047Y270520D01*
Y269480D01*
X185317Y268474D01*
X185837Y267573D01*
X186573Y266837D01*
X187474Y266317D01*
X188480Y266047D01*
X189520D01*
X190526Y266317D01*
X191427Y266837D01*
X192163Y267573D01*
X192683Y268474D01*
X192953Y269480D01*
Y270520D01*
X192683Y271526D01*
X192163Y272427D01*
X191427Y273163D01*
X190526Y273683D01*
X189520Y273953D01*
D02*
G37*
G36*
X179520D02*
X178480D01*
X177474Y273683D01*
X176573Y273163D01*
X175837Y272427D01*
X175317Y271526D01*
X175047Y270520D01*
Y269480D01*
X175317Y268474D01*
X175837Y267573D01*
X176573Y266837D01*
X177474Y266317D01*
X178480Y266047D01*
X179520D01*
X180526Y266317D01*
X181427Y266837D01*
X182163Y267573D01*
X182683Y268474D01*
X182953Y269480D01*
Y270520D01*
X182683Y271526D01*
X182163Y272427D01*
X181427Y273163D01*
X180526Y273683D01*
X179520Y273953D01*
D02*
G37*
G36*
X169491D02*
X168450D01*
X167445Y273683D01*
X166544Y273163D01*
X165808Y272427D01*
X165287Y271526D01*
X165018Y270520D01*
Y269480D01*
X165287Y268474D01*
X165808Y267573D01*
X166544Y266837D01*
X167445Y266317D01*
X168450Y266047D01*
X169491D01*
X170497Y266317D01*
X171398Y266837D01*
X172134Y267573D01*
X172654Y268474D01*
X172924Y269480D01*
Y270520D01*
X172654Y271526D01*
X172134Y272427D01*
X171398Y273163D01*
X170497Y273683D01*
X169491Y273953D01*
D02*
G37*
G36*
X159520D02*
X158480D01*
X157474Y273683D01*
X156573Y273163D01*
X155837Y272427D01*
X155317Y271526D01*
X155047Y270520D01*
Y269480D01*
X155317Y268474D01*
X155837Y267573D01*
X156573Y266837D01*
X157474Y266317D01*
X158480Y266047D01*
X159520D01*
X160526Y266317D01*
X161427Y266837D01*
X162163Y267573D01*
X162683Y268474D01*
X162953Y269480D01*
Y270520D01*
X162683Y271526D01*
X162163Y272427D01*
X161427Y273163D01*
X160526Y273683D01*
X159520Y273953D01*
D02*
G37*
G36*
X149520D02*
X148480D01*
X147474Y273683D01*
X146573Y273163D01*
X145837Y272427D01*
X145317Y271526D01*
X145047Y270520D01*
Y269480D01*
X145317Y268474D01*
X145837Y267573D01*
X146573Y266837D01*
X147474Y266317D01*
X148480Y266047D01*
X149520D01*
X150526Y266317D01*
X151427Y266837D01*
X152163Y267573D01*
X152683Y268474D01*
X152953Y269480D01*
Y270520D01*
X152683Y271526D01*
X152163Y272427D01*
X151427Y273163D01*
X150526Y273683D01*
X149520Y273953D01*
D02*
G37*
G36*
X139491D02*
X138451D01*
X137445Y273683D01*
X136544Y273163D01*
X135808Y272427D01*
X135287Y271526D01*
X135018Y270520D01*
Y269480D01*
X135287Y268474D01*
X135808Y267573D01*
X136544Y266837D01*
X137445Y266317D01*
X138451Y266047D01*
X139491D01*
X140497Y266317D01*
X141398Y266837D01*
X142134Y267573D01*
X142654Y268474D01*
X142924Y269480D01*
Y270520D01*
X142654Y271526D01*
X142134Y272427D01*
X141398Y273163D01*
X140497Y273683D01*
X139491Y273953D01*
D02*
G37*
G36*
X129491D02*
X128451D01*
X127445Y273683D01*
X126544Y273163D01*
X125808Y272427D01*
X125287Y271526D01*
X125018Y270520D01*
Y269480D01*
X125287Y268474D01*
X125808Y267573D01*
X126544Y266837D01*
X127445Y266317D01*
X128451Y266047D01*
X129491D01*
X130497Y266317D01*
X131398Y266837D01*
X132134Y267573D01*
X132654Y268474D01*
X132924Y269480D01*
Y270520D01*
X132654Y271526D01*
X132134Y272427D01*
X131398Y273163D01*
X130497Y273683D01*
X129491Y273953D01*
D02*
G37*
G36*
X250000Y286020D02*
X230000D01*
X229610Y285942D01*
X229279Y285721D01*
X229058Y285390D01*
X228980Y285000D01*
Y264500D01*
X229058Y264110D01*
X229279Y263779D01*
X229610Y263558D01*
X230000Y263480D01*
X250000D01*
X250390Y263558D01*
X250721Y263779D01*
X250942Y264110D01*
X251020Y264500D01*
Y285000D01*
X250942Y285390D01*
X250721Y285721D01*
X250390Y285942D01*
X250000Y286020D01*
D02*
G37*
G36*
X66520Y262953D02*
X65480D01*
X64474Y262683D01*
X63573Y262163D01*
X62837Y261427D01*
X62317Y260526D01*
X62047Y259520D01*
Y258480D01*
X62317Y257474D01*
X62837Y256573D01*
X63573Y255837D01*
X64474Y255317D01*
X65480Y255047D01*
X66520D01*
X67526Y255317D01*
X68427Y255837D01*
X69163Y256573D01*
X69683Y257474D01*
X69953Y258480D01*
Y259520D01*
X69683Y260526D01*
X69163Y261427D01*
X68427Y262163D01*
X67526Y262683D01*
X66520Y262953D01*
D02*
G37*
G36*
Y252953D02*
X66500D01*
Y249500D01*
X69953D01*
Y249520D01*
X69683Y250526D01*
X69163Y251427D01*
X68427Y252163D01*
X67526Y252683D01*
X66520Y252953D01*
D02*
G37*
G36*
X65500D02*
X65480D01*
X64474Y252683D01*
X63573Y252163D01*
X62837Y251427D01*
X62317Y250526D01*
X62047Y249520D01*
Y249500D01*
X65500D01*
Y252953D01*
D02*
G37*
G36*
X69953Y248500D02*
X66500D01*
Y245047D01*
X66520D01*
X67526Y245317D01*
X68427Y245837D01*
X69163Y246573D01*
X69683Y247474D01*
X69953Y248480D01*
Y248500D01*
D02*
G37*
G36*
X65500D02*
X62047D01*
Y248480D01*
X62317Y247474D01*
X62837Y246573D01*
X63573Y245837D01*
X64474Y245317D01*
X65480Y245047D01*
X65500D01*
Y248500D01*
D02*
G37*
G36*
X66520Y232953D02*
X65480D01*
X64474Y232683D01*
X63573Y232163D01*
X62837Y231427D01*
X62317Y230526D01*
X62047Y229520D01*
Y228480D01*
X62317Y227474D01*
X62837Y226573D01*
X63573Y225837D01*
X64474Y225317D01*
X65480Y225047D01*
X66520D01*
X67526Y225317D01*
X68427Y225837D01*
X69163Y226573D01*
X69622Y227369D01*
X127424Y227369D01*
X129201Y225592D01*
X129084Y225002D01*
X128754Y224865D01*
X128500Y224611D01*
X128246Y224865D01*
X127438Y225200D01*
X126562D01*
X125754Y224865D01*
X125250Y224361D01*
X124746Y224865D01*
X123938Y225200D01*
X123062D01*
X122254Y224865D01*
X121635Y224246D01*
X121300Y223438D01*
Y222562D01*
X121635Y221754D01*
X122254Y221135D01*
X122262Y221131D01*
X122163Y220631D01*
X69622Y220631D01*
X69163Y221427D01*
X68427Y222163D01*
X67526Y222683D01*
X66520Y222953D01*
X65480D01*
X64474Y222683D01*
X63573Y222163D01*
X62837Y221427D01*
X62317Y220526D01*
X62047Y219520D01*
Y218480D01*
X62317Y217474D01*
X62837Y216573D01*
X63573Y215837D01*
X64474Y215317D01*
X65480Y215047D01*
X66520D01*
X67526Y215317D01*
X68427Y215837D01*
X69163Y216573D01*
X69622Y217369D01*
X130724Y217369D01*
X135569Y212524D01*
Y198900D01*
X135693Y198276D01*
X136047Y197747D01*
X140246Y193546D01*
X140776Y193193D01*
X141400Y193069D01*
X144220D01*
X144454Y192835D01*
X145262Y192500D01*
X146138D01*
X146946Y192835D01*
X147565Y193454D01*
X147900Y194262D01*
Y195138D01*
X147702Y195615D01*
X148085Y195998D01*
X148562Y195800D01*
X149438D01*
X150246Y196135D01*
X150865Y196754D01*
X151200Y197562D01*
Y198438D01*
X150865Y199246D01*
X150246Y199865D01*
X149438Y200200D01*
X148562D01*
X147754Y199865D01*
X147355Y199466D01*
X143891D01*
X142631Y200726D01*
Y216100D01*
X142507Y216724D01*
X142154Y217253D01*
X129253Y230153D01*
X128724Y230507D01*
X128100Y230631D01*
X69622Y230631D01*
X69163Y231427D01*
X68427Y232163D01*
X67526Y232683D01*
X66520Y232953D01*
D02*
G37*
G36*
X246483Y228982D02*
X245442D01*
X244437Y228713D01*
X243535Y228192D01*
X242799Y227456D01*
X242279Y226555D01*
X242009Y225550D01*
Y224509D01*
X242279Y223503D01*
X242799Y222602D01*
X243535Y221866D01*
X244437Y221346D01*
X245442Y221076D01*
X246483D01*
X247488Y221346D01*
X248389Y221866D01*
X249125Y222602D01*
X249646Y223503D01*
X249915Y224509D01*
Y225550D01*
X249646Y226555D01*
X249125Y227456D01*
X248389Y228192D01*
X247488Y228713D01*
X246483Y228982D01*
D02*
G37*
G36*
X236483D02*
X235442D01*
X234436Y228713D01*
X233535Y228192D01*
X232799Y227456D01*
X232279Y226555D01*
X232010Y225550D01*
Y224509D01*
X232279Y223503D01*
X232799Y222602D01*
X233535Y221866D01*
X234436Y221346D01*
X235442Y221076D01*
X236483D01*
X237488Y221346D01*
X238389Y221866D01*
X239125Y222602D01*
X239646Y223503D01*
X239915Y224509D01*
Y225550D01*
X239646Y226555D01*
X239125Y227456D01*
X238389Y228192D01*
X237488Y228713D01*
X236483Y228982D01*
D02*
G37*
G36*
X128938Y213700D02*
X128062D01*
X127254Y213365D01*
X126635Y212746D01*
X126521Y212470D01*
X125979D01*
X125865Y212746D01*
X125246Y213365D01*
X124438Y213700D01*
X123562D01*
X122754Y213365D01*
X122135Y212746D01*
X121800Y211938D01*
Y211062D01*
X122135Y210254D01*
X122754Y209635D01*
X123562Y209300D01*
X124438D01*
X125246Y209635D01*
X125865Y210254D01*
X125979Y210530D01*
X126521D01*
X126635Y210254D01*
X127254Y209635D01*
X128062Y209300D01*
X128938D01*
X129746Y209635D01*
X130365Y210254D01*
X130700Y211062D01*
Y211938D01*
X130365Y212746D01*
X129746Y213365D01*
X128938Y213700D01*
D02*
G37*
G36*
X246451Y218482D02*
X245410D01*
X244405Y218213D01*
X243504Y217692D01*
X242768Y216956D01*
X242247Y216055D01*
X241978Y215050D01*
Y214009D01*
X242247Y213003D01*
X242768Y212102D01*
X243504Y211366D01*
X244405Y210846D01*
X245410Y210576D01*
X246451D01*
X247456Y210846D01*
X248358Y211366D01*
X249094Y212102D01*
X249614Y213003D01*
X249884Y214009D01*
Y215050D01*
X249614Y216055D01*
X249094Y216956D01*
X248358Y217692D01*
X247456Y218213D01*
X246451Y218482D01*
D02*
G37*
G36*
X236451D02*
X235410D01*
X234405Y218213D01*
X233504Y217692D01*
X232768Y216956D01*
X232247Y216055D01*
X231978Y215050D01*
Y214009D01*
X232247Y213003D01*
X232768Y212102D01*
X233504Y211366D01*
X234405Y210846D01*
X235410Y210576D01*
X236451D01*
X237456Y210846D01*
X238358Y211366D01*
X239094Y212102D01*
X239614Y213003D01*
X239883Y214009D01*
Y215050D01*
X239614Y216055D01*
X239094Y216956D01*
X238358Y217692D01*
X237456Y218213D01*
X236451Y218482D01*
D02*
G37*
G36*
X66520Y212953D02*
X65480D01*
X64474Y212683D01*
X63573Y212163D01*
X62837Y211427D01*
X62317Y210526D01*
X62047Y209520D01*
Y208480D01*
X62317Y207474D01*
X62837Y206573D01*
X63573Y205837D01*
X64474Y205317D01*
X65480Y205047D01*
X66520D01*
X67526Y205317D01*
X68427Y205837D01*
X69163Y206573D01*
X69683Y207474D01*
X69953Y208480D01*
Y209520D01*
X69683Y210526D01*
X69163Y211427D01*
X68427Y212163D01*
X67526Y212683D01*
X66520Y212953D01*
D02*
G37*
G36*
X103328Y207968D02*
X102546D01*
X101791Y207766D01*
X101114Y207375D01*
X100562Y206823D01*
X100171Y206146D01*
X99968Y205391D01*
Y204609D01*
X100171Y203854D01*
X100562Y203177D01*
X101114Y202625D01*
X101791Y202234D01*
X102546Y202031D01*
X103328D01*
X104083Y202234D01*
X104760Y202625D01*
X105312Y203177D01*
X105703Y203854D01*
X105905Y204609D01*
Y205391D01*
X105703Y206146D01*
X105312Y206823D01*
X104760Y207375D01*
X104083Y207766D01*
X103328Y207968D01*
D02*
G37*
G36*
X95454D02*
X94672D01*
X93917Y207766D01*
X93240Y207375D01*
X92688Y206823D01*
X92297Y206146D01*
X92094Y205391D01*
Y204609D01*
X92297Y203854D01*
X92688Y203177D01*
X93240Y202625D01*
X93917Y202234D01*
X94672Y202031D01*
X95454D01*
X96209Y202234D01*
X96886Y202625D01*
X97438Y203177D01*
X97829Y203854D01*
X98032Y204609D01*
Y205391D01*
X97829Y206146D01*
X97438Y206823D01*
X96886Y207375D01*
X96209Y207766D01*
X95454Y207968D01*
D02*
G37*
G36*
X66520Y242953D02*
X65480D01*
X64474Y242683D01*
X63573Y242163D01*
X62837Y241427D01*
X62317Y240526D01*
X62047Y239520D01*
Y238480D01*
X62317Y237474D01*
X62837Y236573D01*
X63573Y235837D01*
X64474Y235317D01*
X65480Y235047D01*
X66520D01*
X67526Y235317D01*
X68427Y235837D01*
X69163Y236573D01*
X69622Y237369D01*
X124824D01*
X144369Y217824D01*
Y203980D01*
X144135Y203746D01*
X143800Y202938D01*
Y202062D01*
X144135Y201254D01*
X144754Y200635D01*
X145562Y200300D01*
X146438D01*
X147246Y200635D01*
X147865Y201254D01*
X148200Y202062D01*
Y202938D01*
X147865Y203746D01*
X147631Y203980D01*
Y218500D01*
X147507Y219124D01*
X147153Y219654D01*
X147153Y219654D01*
X126654Y240154D01*
X126124Y240507D01*
X125500Y240631D01*
X69622D01*
X69163Y241427D01*
X68427Y242163D01*
X67526Y242683D01*
X66520Y242953D01*
D02*
G37*
G36*
X236520Y207953D02*
X235480D01*
X234474Y207683D01*
X233573Y207163D01*
X232837Y206427D01*
X232317Y205526D01*
X232047Y204520D01*
Y203480D01*
X232317Y202474D01*
X232837Y201573D01*
X233573Y200837D01*
X234474Y200317D01*
X235480Y200047D01*
X236520D01*
X237526Y200317D01*
X238427Y200837D01*
X239163Y201573D01*
X239683Y202474D01*
X239953Y203480D01*
Y204520D01*
X239683Y205526D01*
X239163Y206427D01*
X238427Y207163D01*
X237526Y207683D01*
X236520Y207953D01*
D02*
G37*
G36*
X66520Y202953D02*
X66500D01*
Y199500D01*
X69953D01*
Y199520D01*
X69683Y200526D01*
X69163Y201427D01*
X68427Y202163D01*
X67526Y202683D01*
X66520Y202953D01*
D02*
G37*
G36*
X65500D02*
X65480D01*
X64474Y202683D01*
X63573Y202163D01*
X62837Y201427D01*
X62317Y200526D01*
X62047Y199520D01*
Y199500D01*
X65500D01*
Y202953D01*
D02*
G37*
G36*
X69953Y198500D02*
X66500D01*
Y195047D01*
X66520D01*
X67526Y195317D01*
X68427Y195837D01*
X69163Y196573D01*
X69683Y197474D01*
X69953Y198480D01*
Y198500D01*
D02*
G37*
G36*
X65500D02*
X62047D01*
Y198480D01*
X62317Y197474D01*
X62837Y196573D01*
X63573Y195837D01*
X64474Y195317D01*
X65480Y195047D01*
X65500D01*
Y198500D01*
D02*
G37*
G36*
X236520Y197953D02*
X235480D01*
X234474Y197683D01*
X233573Y197163D01*
X232837Y196427D01*
X232317Y195526D01*
X232047Y194520D01*
Y193480D01*
X232317Y192474D01*
X232837Y191573D01*
X233573Y190837D01*
X234474Y190317D01*
X235480Y190047D01*
X236520D01*
X237526Y190317D01*
X238427Y190837D01*
X239163Y191573D01*
X239683Y192474D01*
X239953Y193480D01*
Y194520D01*
X239683Y195526D01*
X239163Y196427D01*
X238427Y197163D01*
X237526Y197683D01*
X236520Y197953D01*
D02*
G37*
G36*
X66520Y192953D02*
X65480D01*
X64474Y192683D01*
X63573Y192163D01*
X62837Y191427D01*
X62317Y190526D01*
X62047Y189520D01*
Y188480D01*
X62317Y187474D01*
X62837Y186573D01*
X63573Y185837D01*
X64474Y185317D01*
X65480Y185047D01*
X66520D01*
X67526Y185317D01*
X68427Y185837D01*
X69163Y186573D01*
X69683Y187474D01*
X69953Y188480D01*
Y189520D01*
X69683Y190526D01*
X69163Y191427D01*
X68427Y192163D01*
X67526Y192683D01*
X66520Y192953D01*
D02*
G37*
G36*
X236520Y187953D02*
X235480D01*
X234474Y187683D01*
X233573Y187163D01*
X232837Y186427D01*
X232317Y185526D01*
X232047Y184520D01*
Y183480D01*
X232317Y182474D01*
X232837Y181573D01*
X233573Y180837D01*
X234474Y180317D01*
X235480Y180047D01*
X236520D01*
X237526Y180317D01*
X238427Y180837D01*
X239163Y181573D01*
X239683Y182474D01*
X239953Y183480D01*
Y184520D01*
X239683Y185526D01*
X239163Y186427D01*
X238427Y187163D01*
X237526Y187683D01*
X236520Y187953D01*
D02*
G37*
G36*
X386937Y173724D02*
X382500D01*
Y170272D01*
X386937D01*
Y173724D01*
D02*
G37*
G36*
X381500D02*
X377063D01*
Y170272D01*
X381500D01*
Y173724D01*
D02*
G37*
G36*
X236520Y177953D02*
X235480D01*
X234474Y177683D01*
X233573Y177163D01*
X232837Y176427D01*
X232317Y175526D01*
X232047Y174520D01*
Y173480D01*
X232317Y172474D01*
X232837Y171573D01*
X233573Y170837D01*
X234474Y170317D01*
X235480Y170047D01*
X236520D01*
X237526Y170317D01*
X238427Y170837D01*
X239163Y171573D01*
X239683Y172474D01*
X239953Y173480D01*
Y174520D01*
X239683Y175526D01*
X239163Y176427D01*
X238427Y177163D01*
X237526Y177683D01*
X236520Y177953D01*
D02*
G37*
G36*
X386937Y169272D02*
X382500D01*
Y165819D01*
X386937D01*
Y169272D01*
D02*
G37*
G36*
X381500D02*
X377063D01*
Y165819D01*
X381500D01*
Y169272D01*
D02*
G37*
G36*
X374299Y167622D02*
X371831D01*
Y165547D01*
X374299D01*
Y167622D01*
D02*
G37*
G36*
X370831D02*
X368362D01*
Y165547D01*
X370831D01*
Y167622D01*
D02*
G37*
G36*
X374299Y164547D02*
X371831D01*
Y162472D01*
X374299D01*
Y164547D01*
D02*
G37*
G36*
X370831D02*
X368362D01*
Y162472D01*
X370831D01*
Y164547D01*
D02*
G37*
G36*
X236520Y167953D02*
X235480D01*
X234474Y167683D01*
X233573Y167163D01*
X232837Y166427D01*
X232317Y165526D01*
X232047Y164520D01*
Y163480D01*
X232317Y162474D01*
X232837Y161573D01*
X233573Y160837D01*
X234474Y160317D01*
X235480Y160047D01*
X236520D01*
X237526Y160317D01*
X238427Y160837D01*
X239163Y161573D01*
X239683Y162474D01*
X239953Y163480D01*
Y164520D01*
X239683Y165526D01*
X239163Y166427D01*
X238427Y167163D01*
X237526Y167683D01*
X236520Y167953D01*
D02*
G37*
G36*
Y157953D02*
X235480D01*
X234474Y157683D01*
X233573Y157163D01*
X232837Y156427D01*
X232317Y155526D01*
X232047Y154520D01*
Y153480D01*
X232317Y152474D01*
X232837Y151573D01*
X233573Y150837D01*
X234474Y150317D01*
X235480Y150047D01*
X236520D01*
X237526Y150317D01*
X238427Y150837D01*
X239163Y151573D01*
X239683Y152474D01*
X239953Y153480D01*
Y154520D01*
X239683Y155526D01*
X239163Y156427D01*
X238427Y157163D01*
X237526Y157683D01*
X236520Y157953D01*
D02*
G37*
G36*
X374299Y148528D02*
X371831D01*
Y146453D01*
X374299D01*
Y148528D01*
D02*
G37*
G36*
X370831D02*
X368362D01*
Y146453D01*
X370831D01*
Y148528D01*
D02*
G37*
G36*
X374299Y145453D02*
X371831D01*
Y143378D01*
X374299D01*
Y145453D01*
D02*
G37*
G36*
X370831D02*
X368362D01*
Y143378D01*
X370831D01*
Y145453D01*
D02*
G37*
G36*
X386937Y145181D02*
X382500D01*
Y141728D01*
X386937D01*
Y145181D01*
D02*
G37*
G36*
X381500D02*
X377063D01*
Y141728D01*
X381500D01*
Y145181D01*
D02*
G37*
G36*
X236520Y147953D02*
X235480D01*
X234474Y147683D01*
X233573Y147163D01*
X232837Y146427D01*
X232317Y145526D01*
X232047Y144520D01*
Y143480D01*
X232317Y142474D01*
X232837Y141573D01*
X233573Y140837D01*
X234474Y140317D01*
X235480Y140047D01*
X236520D01*
X237526Y140317D01*
X238427Y140837D01*
X239163Y141573D01*
X239683Y142474D01*
X239953Y143480D01*
Y144520D01*
X239683Y145526D01*
X239163Y146427D01*
X238427Y147163D01*
X237526Y147683D01*
X236520Y147953D01*
D02*
G37*
G36*
X386937Y140728D02*
X382500D01*
Y137276D01*
X386937D01*
Y140728D01*
D02*
G37*
G36*
X381500D02*
X377063D01*
Y137276D01*
X381500D01*
Y140728D01*
D02*
G37*
G36*
X236520Y137953D02*
X235480D01*
X234474Y137683D01*
X233573Y137163D01*
X232837Y136427D01*
X232317Y135526D01*
X232047Y134520D01*
Y133480D01*
X232317Y132474D01*
X232837Y131573D01*
X233573Y130837D01*
X234474Y130317D01*
X235480Y130047D01*
X236520D01*
X237526Y130317D01*
X238427Y130837D01*
X239163Y131573D01*
X239683Y132474D01*
X239953Y133480D01*
Y134520D01*
X239683Y135526D01*
X239163Y136427D01*
X238427Y137163D01*
X237526Y137683D01*
X236520Y137953D01*
D02*
G37*
G36*
X208520Y125953D02*
X207480D01*
X206474Y125683D01*
X205573Y125163D01*
X204837Y124427D01*
X204317Y123526D01*
X204047Y122520D01*
Y121480D01*
X204317Y120474D01*
X204837Y119573D01*
X205573Y118837D01*
X206474Y118317D01*
X207480Y118047D01*
X208520D01*
X209526Y118317D01*
X210427Y118837D01*
X211163Y119573D01*
X211683Y120474D01*
X211953Y121480D01*
Y122520D01*
X211683Y123526D01*
X211163Y124427D01*
X210427Y125163D01*
X209526Y125683D01*
X208520Y125953D01*
D02*
G37*
G36*
X198520D02*
X197480D01*
X196474Y125683D01*
X195573Y125163D01*
X194837Y124427D01*
X194317Y123526D01*
X194047Y122520D01*
Y121480D01*
X194317Y120474D01*
X194837Y119573D01*
X195573Y118837D01*
X196474Y118317D01*
X197480Y118047D01*
X198520D01*
X199526Y118317D01*
X200427Y118837D01*
X201163Y119573D01*
X201683Y120474D01*
X201953Y121480D01*
Y122520D01*
X201683Y123526D01*
X201163Y124427D01*
X200427Y125163D01*
X199526Y125683D01*
X198520Y125953D01*
D02*
G37*
G36*
X188520D02*
X187480D01*
X186474Y125683D01*
X185573Y125163D01*
X184837Y124427D01*
X184317Y123526D01*
X184047Y122520D01*
Y121480D01*
X184317Y120474D01*
X184837Y119573D01*
X185573Y118837D01*
X186474Y118317D01*
X187480Y118047D01*
X188520D01*
X189526Y118317D01*
X190427Y118837D01*
X191163Y119573D01*
X191683Y120474D01*
X191953Y121480D01*
Y122520D01*
X191683Y123526D01*
X191163Y124427D01*
X190427Y125163D01*
X189526Y125683D01*
X188520Y125953D01*
D02*
G37*
G36*
X178520D02*
X177480D01*
X176474Y125683D01*
X175573Y125163D01*
X174837Y124427D01*
X174317Y123526D01*
X174047Y122520D01*
Y121480D01*
X174317Y120474D01*
X174837Y119573D01*
X175573Y118837D01*
X176474Y118317D01*
X177480Y118047D01*
X178520D01*
X179526Y118317D01*
X180427Y118837D01*
X181163Y119573D01*
X181683Y120474D01*
X181953Y121480D01*
Y122520D01*
X181683Y123526D01*
X181163Y124427D01*
X180427Y125163D01*
X179526Y125683D01*
X178520Y125953D01*
D02*
G37*
G36*
X168520D02*
X167480D01*
X166474Y125683D01*
X165573Y125163D01*
X164837Y124427D01*
X164317Y123526D01*
X164047Y122520D01*
Y121480D01*
X164317Y120474D01*
X164837Y119573D01*
X165573Y118837D01*
X166474Y118317D01*
X167480Y118047D01*
X168520D01*
X169526Y118317D01*
X170427Y118837D01*
X171163Y119573D01*
X171683Y120474D01*
X171953Y121480D01*
Y122520D01*
X171683Y123526D01*
X171163Y124427D01*
X170427Y125163D01*
X169526Y125683D01*
X168520Y125953D01*
D02*
G37*
G36*
X158520D02*
X157480D01*
X156474Y125683D01*
X155573Y125163D01*
X154837Y124427D01*
X154317Y123526D01*
X154047Y122520D01*
Y121480D01*
X154317Y120474D01*
X154837Y119573D01*
X155573Y118837D01*
X156474Y118317D01*
X157480Y118047D01*
X158520D01*
X159526Y118317D01*
X160427Y118837D01*
X161163Y119573D01*
X161683Y120474D01*
X161953Y121480D01*
Y122520D01*
X161683Y123526D01*
X161163Y124427D01*
X160427Y125163D01*
X159526Y125683D01*
X158520Y125953D01*
D02*
G37*
G36*
X148520D02*
X147480D01*
X146474Y125683D01*
X145573Y125163D01*
X144837Y124427D01*
X144317Y123526D01*
X144047Y122520D01*
Y121480D01*
X144317Y120474D01*
X144837Y119573D01*
X145573Y118837D01*
X146474Y118317D01*
X147480Y118047D01*
X148520D01*
X149526Y118317D01*
X150427Y118837D01*
X151163Y119573D01*
X151683Y120474D01*
X151953Y121480D01*
Y122520D01*
X151683Y123526D01*
X151163Y124427D01*
X150427Y125163D01*
X149526Y125683D01*
X148520Y125953D01*
D02*
G37*
G36*
X138520D02*
X137480D01*
X136474Y125683D01*
X135573Y125163D01*
X134837Y124427D01*
X134317Y123526D01*
X134047Y122520D01*
Y121480D01*
X134317Y120474D01*
X134837Y119573D01*
X135573Y118837D01*
X136474Y118317D01*
X137480Y118047D01*
X138520D01*
X139526Y118317D01*
X140427Y118837D01*
X141163Y119573D01*
X141683Y120474D01*
X141953Y121480D01*
Y122520D01*
X141683Y123526D01*
X141163Y124427D01*
X140427Y125163D01*
X139526Y125683D01*
X138520Y125953D01*
D02*
G37*
G36*
X384839Y122480D02*
X384161D01*
X383506Y122305D01*
X382919Y121966D01*
X382440Y121486D01*
X382101Y120899D01*
X381925Y120245D01*
Y119567D01*
X382101Y118912D01*
X382440Y118324D01*
X382919Y117845D01*
X383506Y117506D01*
X384161Y117331D01*
X384839D01*
X385494Y117506D01*
X386081Y117845D01*
X386560Y118324D01*
X386899Y118912D01*
X387075Y119567D01*
Y120245D01*
X386899Y120899D01*
X386560Y121486D01*
X386081Y121966D01*
X385494Y122305D01*
X384839Y122480D01*
D02*
G37*
G36*
X242438Y123200D02*
X241562D01*
X240754Y122865D01*
X240135Y122246D01*
X239800Y121438D01*
Y120562D01*
X240135Y119754D01*
X240754Y119135D01*
X241562Y118800D01*
X242438D01*
X242453Y118806D01*
X242806Y118453D01*
X242800Y118438D01*
Y117562D01*
X243135Y116754D01*
X243754Y116135D01*
X244562Y115800D01*
X245438D01*
X246246Y116135D01*
X246865Y116754D01*
X247200Y117562D01*
Y118438D01*
X246865Y119246D01*
X246246Y119865D01*
X245438Y120200D01*
X244562D01*
X244547Y120194D01*
X244194Y120547D01*
X244200Y120562D01*
Y121438D01*
X243865Y122246D01*
X243246Y122865D01*
X242438Y123200D01*
D02*
G37*
G36*
X208520Y114953D02*
X207480D01*
X206474Y114683D01*
X205573Y114163D01*
X204837Y113427D01*
X204317Y112526D01*
X204047Y111520D01*
Y110480D01*
X204317Y109474D01*
X204837Y108573D01*
X205573Y107837D01*
X206474Y107317D01*
X207480Y107047D01*
X208520D01*
X209526Y107317D01*
X210427Y107837D01*
X211163Y108573D01*
X211683Y109474D01*
X211953Y110480D01*
Y111520D01*
X211683Y112526D01*
X211163Y113427D01*
X210427Y114163D01*
X209526Y114683D01*
X208520Y114953D01*
D02*
G37*
G36*
X198520D02*
X197480D01*
X196474Y114683D01*
X195573Y114163D01*
X194837Y113427D01*
X194317Y112526D01*
X194047Y111520D01*
Y110480D01*
X194317Y109474D01*
X194837Y108573D01*
X195573Y107837D01*
X196474Y107317D01*
X197480Y107047D01*
X198520D01*
X199526Y107317D01*
X200427Y107837D01*
X201163Y108573D01*
X201683Y109474D01*
X201953Y110480D01*
Y111520D01*
X201683Y112526D01*
X201163Y113427D01*
X200427Y114163D01*
X199526Y114683D01*
X198520Y114953D01*
D02*
G37*
G36*
X384839Y110669D02*
X384161D01*
X383506Y110494D01*
X382919Y110155D01*
X382440Y109676D01*
X382101Y109088D01*
X381925Y108433D01*
Y107755D01*
X382101Y107101D01*
X382440Y106514D01*
X382919Y106034D01*
X383506Y105695D01*
X384161Y105520D01*
X384839D01*
X385494Y105695D01*
X386081Y106034D01*
X386560Y106514D01*
X386899Y107101D01*
X387075Y107755D01*
Y108433D01*
X386899Y109088D01*
X386560Y109676D01*
X386081Y110155D01*
X385494Y110494D01*
X384839Y110669D01*
D02*
G37*
G36*
X63520Y111953D02*
X62480D01*
X61474Y111683D01*
X60573Y111163D01*
X59837Y110427D01*
X59317Y109526D01*
X59047Y108520D01*
Y107480D01*
X59317Y106474D01*
X59837Y105573D01*
X60573Y104837D01*
X61474Y104317D01*
X62480Y104047D01*
X63520D01*
X64526Y104317D01*
X65427Y104837D01*
X66163Y105573D01*
X66683Y106474D01*
X66953Y107480D01*
Y108520D01*
X66683Y109526D01*
X66163Y110427D01*
X65427Y111163D01*
X64526Y111683D01*
X63520Y111953D01*
D02*
G37*
G36*
Y101953D02*
X62480D01*
X61474Y101683D01*
X60573Y101163D01*
X59837Y100427D01*
X59317Y99526D01*
X59047Y98520D01*
Y97480D01*
X59317Y96474D01*
X59837Y95573D01*
X60573Y94837D01*
X61474Y94317D01*
X62480Y94047D01*
X63520D01*
X64526Y94317D01*
X65427Y94837D01*
X66163Y95573D01*
X66683Y96474D01*
X66953Y97480D01*
Y98520D01*
X66683Y99526D01*
X66163Y100427D01*
X65427Y101163D01*
X64526Y101683D01*
X63520Y101953D01*
D02*
G37*
G36*
X145520Y91953D02*
X144480D01*
X143474Y91683D01*
X142573Y91163D01*
X141837Y90427D01*
X141317Y89526D01*
X141047Y88520D01*
Y87480D01*
X141317Y86474D01*
X141837Y85573D01*
X142573Y84837D01*
X143474Y84317D01*
X144480Y84047D01*
X145520D01*
X146526Y84317D01*
X147427Y84837D01*
X148163Y85573D01*
X148683Y86474D01*
X148953Y87480D01*
Y88520D01*
X148683Y89526D01*
X148163Y90427D01*
X147427Y91163D01*
X146526Y91683D01*
X145520Y91953D01*
D02*
G37*
G36*
X63520D02*
X62480D01*
X61474Y91683D01*
X60573Y91163D01*
X59837Y90427D01*
X59317Y89526D01*
X59047Y88520D01*
Y87480D01*
X59317Y86474D01*
X59837Y85573D01*
X60573Y84837D01*
X61474Y84317D01*
X62480Y84047D01*
X63520D01*
X64526Y84317D01*
X65427Y84837D01*
X66163Y85573D01*
X66683Y86474D01*
X66953Y87480D01*
Y88520D01*
X66683Y89526D01*
X66163Y90427D01*
X65427Y91163D01*
X64526Y91683D01*
X63520Y91953D01*
D02*
G37*
G36*
X351496Y89165D02*
X351374D01*
Y83350D01*
X357189D01*
Y83472D01*
X356946Y84692D01*
X356470Y85842D01*
X355779Y86876D01*
X354900Y87756D01*
X353865Y88447D01*
X352716Y88923D01*
X351496Y89165D01*
D02*
G37*
G36*
X350374D02*
X350252D01*
X349032Y88923D01*
X347883Y88447D01*
X346849Y87756D01*
X345969Y86876D01*
X345278Y85842D01*
X344802Y84692D01*
X344559Y83472D01*
Y83350D01*
X350374D01*
Y89165D01*
D02*
G37*
G36*
X357189Y82350D02*
X351374D01*
Y76535D01*
X351496D01*
X352716Y76778D01*
X353865Y77254D01*
X354900Y77945D01*
X355779Y78825D01*
X356470Y79859D01*
X356946Y81008D01*
X357189Y82228D01*
Y82350D01*
D02*
G37*
G36*
X350374D02*
X344559D01*
Y82228D01*
X344802Y81008D01*
X345278Y79859D01*
X345969Y78825D01*
X346849Y77945D01*
X347883Y77254D01*
X349032Y76778D01*
X350252Y76535D01*
X350374D01*
Y82350D01*
D02*
G37*
G36*
X97438Y80200D02*
X96562D01*
X95754Y79865D01*
X95135Y79246D01*
X94800Y78438D01*
Y77562D01*
X95135Y76754D01*
X95754Y76135D01*
X96562Y75800D01*
X97438D01*
X98246Y76135D01*
X98865Y76754D01*
X99200Y77562D01*
Y78438D01*
X98865Y79246D01*
X98246Y79865D01*
X97438Y80200D01*
D02*
G37*
G36*
X145520Y81953D02*
X144480D01*
X143474Y81683D01*
X142573Y81163D01*
X141837Y80427D01*
X141317Y79526D01*
X141047Y78520D01*
Y77480D01*
X141317Y76474D01*
X141837Y75573D01*
X142573Y74837D01*
X143474Y74317D01*
X144480Y74047D01*
X145520D01*
X146526Y74317D01*
X147427Y74837D01*
X148163Y75573D01*
X148683Y76474D01*
X148953Y77480D01*
Y78520D01*
X148683Y79526D01*
X148163Y80427D01*
X147427Y81163D01*
X146526Y81683D01*
X145520Y81953D01*
D02*
G37*
G36*
X63520D02*
X62480D01*
X61474Y81683D01*
X60573Y81163D01*
X59837Y80427D01*
X59317Y79526D01*
X59047Y78520D01*
Y77480D01*
X59317Y76474D01*
X59837Y75573D01*
X60573Y74837D01*
X61474Y74317D01*
X62480Y74047D01*
X63520D01*
X64526Y74317D01*
X65427Y74837D01*
X66163Y75573D01*
X66683Y76474D01*
X66953Y77480D01*
Y78520D01*
X66683Y79526D01*
X66163Y80427D01*
X65427Y81163D01*
X64526Y81683D01*
X63520Y81953D01*
D02*
G37*
G36*
X341027Y74843D02*
X341000D01*
Y71343D01*
X344500D01*
Y71369D01*
X344227Y72386D01*
X343701Y73299D01*
X342956Y74043D01*
X342044Y74570D01*
X341027Y74843D01*
D02*
G37*
G36*
X340000D02*
X339973D01*
X338956Y74570D01*
X338044Y74043D01*
X337299Y73299D01*
X336773Y72386D01*
X336500Y71369D01*
Y71343D01*
X340000D01*
Y74843D01*
D02*
G37*
G36*
X344500Y70343D02*
X341000D01*
Y66843D01*
X341027D01*
X342044Y67115D01*
X342956Y67642D01*
X343701Y68387D01*
X344227Y69299D01*
X344500Y70316D01*
Y70343D01*
D02*
G37*
G36*
X340000D02*
X336500D01*
Y70316D01*
X336773Y69299D01*
X337299Y68387D01*
X338044Y67642D01*
X338956Y67115D01*
X339973Y66843D01*
X340000D01*
Y70343D01*
D02*
G37*
G36*
X145520Y71953D02*
X144480D01*
X143474Y71683D01*
X142573Y71163D01*
X141837Y70427D01*
X141317Y69526D01*
X141047Y68520D01*
Y67480D01*
X141317Y66474D01*
X141837Y65573D01*
X142573Y64837D01*
X143474Y64317D01*
X144480Y64047D01*
X145520D01*
X146526Y64317D01*
X147427Y64837D01*
X148163Y65573D01*
X148683Y66474D01*
X148953Y67480D01*
Y68520D01*
X148683Y69526D01*
X148163Y70427D01*
X147427Y71163D01*
X146526Y71683D01*
X145520Y71953D01*
D02*
G37*
G36*
X63520D02*
X62480D01*
X61474Y71683D01*
X60573Y71163D01*
X59837Y70427D01*
X59317Y69526D01*
X59047Y68520D01*
Y67480D01*
X59317Y66474D01*
X59837Y65573D01*
X60573Y64837D01*
X61474Y64317D01*
X62480Y64047D01*
X63520D01*
X64526Y64317D01*
X65427Y64837D01*
X66163Y65573D01*
X66683Y66474D01*
X66953Y67480D01*
Y68520D01*
X66683Y69526D01*
X66163Y70427D01*
X65427Y71163D01*
X64526Y71683D01*
X63520Y71953D01*
D02*
G37*
G36*
X145520Y61953D02*
X144480D01*
X143474Y61683D01*
X142573Y61163D01*
X141837Y60427D01*
X141317Y59526D01*
X141047Y58520D01*
Y57480D01*
X141317Y56474D01*
X141837Y55573D01*
X142573Y54837D01*
X143474Y54317D01*
X144480Y54047D01*
X145520D01*
X146526Y54317D01*
X147427Y54837D01*
X148163Y55573D01*
X148683Y56474D01*
X148953Y57480D01*
Y58520D01*
X148683Y59526D01*
X148163Y60427D01*
X147427Y61163D01*
X146526Y61683D01*
X145520Y61953D01*
D02*
G37*
G36*
X63520D02*
X62480D01*
X61474Y61683D01*
X60573Y61163D01*
X59837Y60427D01*
X59317Y59526D01*
X59047Y58520D01*
Y57480D01*
X59317Y56474D01*
X59837Y55573D01*
X60573Y54837D01*
X61474Y54317D01*
X62480Y54047D01*
X63520D01*
X64526Y54317D01*
X65427Y54837D01*
X66163Y55573D01*
X66683Y56474D01*
X66953Y57480D01*
Y58520D01*
X66683Y59526D01*
X66163Y60427D01*
X65427Y61163D01*
X64526Y61683D01*
X63520Y61953D01*
D02*
G37*
G36*
X97438Y56200D02*
X96562D01*
X95754Y55865D01*
X95135Y55246D01*
X94800Y54438D01*
Y53562D01*
X95135Y52754D01*
X95754Y52135D01*
X96562Y51800D01*
X97438D01*
X98246Y52135D01*
X98865Y52754D01*
X99200Y53562D01*
Y54438D01*
X98865Y55246D01*
X98246Y55865D01*
X97438Y56200D01*
D02*
G37*
G36*
X23438Y50200D02*
X22562D01*
X21754Y49865D01*
X21327Y49438D01*
X21000Y49302D01*
X20673Y49438D01*
X20246Y49865D01*
X19438Y50200D01*
X18562D01*
X17754Y49865D01*
X17135Y49246D01*
X16800Y48438D01*
Y47562D01*
X17135Y46754D01*
X17754Y46135D01*
X18562Y45800D01*
X19438D01*
X20246Y46135D01*
X20673Y46562D01*
X21000Y46698D01*
X21327Y46562D01*
X21754Y46135D01*
X22562Y45800D01*
X23438D01*
X24246Y46135D01*
X24865Y46754D01*
X25200Y47562D01*
Y48438D01*
X24865Y49246D01*
X24246Y49865D01*
X23438Y50200D01*
D02*
G37*
G36*
X171438Y178200D02*
X170562D01*
X169754Y177865D01*
X169135Y177246D01*
X168800Y176438D01*
Y175562D01*
X169135Y174754D01*
X169754Y174135D01*
X170562Y173800D01*
X171438D01*
X172246Y174135D01*
X172353Y174107D01*
X172700Y173638D01*
Y172762D01*
X173035Y171954D01*
X173654Y171335D01*
X174462Y171000D01*
X174793D01*
X291146Y54646D01*
X291676Y54293D01*
X292300Y54169D01*
X335851D01*
X336500Y53520D01*
Y52599D01*
X336773Y51582D01*
X337299Y50670D01*
X338044Y49925D01*
X338956Y49399D01*
X339973Y49126D01*
X341027D01*
X342044Y49399D01*
X342956Y49925D01*
X343701Y50670D01*
X344227Y51582D01*
X344500Y52599D01*
Y53653D01*
X344227Y54670D01*
X343701Y55582D01*
X342956Y56327D01*
X342160Y56786D01*
X342110Y56997D01*
Y57129D01*
X342160Y57340D01*
X342956Y57799D01*
X343701Y58544D01*
X344227Y59456D01*
X344500Y60473D01*
Y61527D01*
X344227Y62544D01*
X343701Y63456D01*
X342956Y64201D01*
X342044Y64727D01*
X341027Y65000D01*
X339973D01*
X338956Y64727D01*
X338044Y64201D01*
X337299Y63456D01*
X336773Y62544D01*
X336500Y61527D01*
Y60606D01*
X336125Y60231D01*
X294376D01*
X177453Y177154D01*
X176924Y177507D01*
X176300Y177631D01*
X172480D01*
X172246Y177865D01*
X171438Y178200D01*
D02*
G37*
G36*
X145520Y51953D02*
X144480D01*
X143474Y51683D01*
X142573Y51163D01*
X141837Y50427D01*
X141317Y49526D01*
X141047Y48520D01*
Y47480D01*
X141317Y46474D01*
X141837Y45573D01*
X142573Y44837D01*
X143474Y44317D01*
X144480Y44047D01*
X145520D01*
X146526Y44317D01*
X147427Y44837D01*
X148163Y45573D01*
X148683Y46474D01*
X148953Y47480D01*
Y48520D01*
X148683Y49526D01*
X148163Y50427D01*
X147427Y51163D01*
X146526Y51683D01*
X145520Y51953D01*
D02*
G37*
G36*
X63520D02*
X62480D01*
X61474Y51683D01*
X60573Y51163D01*
X59837Y50427D01*
X59317Y49526D01*
X59047Y48520D01*
Y47480D01*
X59317Y46474D01*
X59837Y45573D01*
X60573Y44837D01*
X61474Y44317D01*
X62480Y44047D01*
X63520D01*
X64526Y44317D01*
X65427Y44837D01*
X66163Y45573D01*
X66683Y46474D01*
X66953Y47480D01*
Y48520D01*
X66683Y49526D01*
X66163Y50427D01*
X65427Y51163D01*
X64526Y51683D01*
X63520Y51953D01*
D02*
G37*
G36*
X341027Y47284D02*
X339973D01*
X338956Y47011D01*
X338044Y46484D01*
X337299Y45739D01*
X336773Y44827D01*
X336500Y43810D01*
Y42757D01*
X336773Y41739D01*
X337299Y40827D01*
X338044Y40083D01*
X338956Y39556D01*
X339973Y39283D01*
X341027D01*
X342044Y39556D01*
X342956Y40083D01*
X343701Y40827D01*
X344227Y41739D01*
X344500Y42757D01*
Y43810D01*
X344227Y44827D01*
X343701Y45739D01*
X342956Y46484D01*
X342044Y47011D01*
X341027Y47284D01*
D02*
G37*
G36*
X145520Y41953D02*
X144480D01*
X143474Y41683D01*
X142573Y41163D01*
X141837Y40427D01*
X141317Y39526D01*
X141047Y38520D01*
Y37480D01*
X141317Y36474D01*
X141837Y35573D01*
X142573Y34837D01*
X143474Y34317D01*
X144480Y34047D01*
X145520D01*
X146526Y34317D01*
X147427Y34837D01*
X148163Y35573D01*
X148683Y36474D01*
X148953Y37480D01*
Y38520D01*
X148683Y39526D01*
X148163Y40427D01*
X147427Y41163D01*
X146526Y41683D01*
X145520Y41953D01*
D02*
G37*
G36*
X63520D02*
X62480D01*
X61474Y41683D01*
X60573Y41163D01*
X59837Y40427D01*
X59317Y39526D01*
X59047Y38520D01*
Y37480D01*
X59317Y36474D01*
X59837Y35573D01*
X60573Y34837D01*
X61474Y34317D01*
X62480Y34047D01*
X63520D01*
X64526Y34317D01*
X65427Y34837D01*
X66163Y35573D01*
X66683Y36474D01*
X66953Y37480D01*
Y38520D01*
X66683Y39526D01*
X66163Y40427D01*
X65427Y41163D01*
X64526Y41683D01*
X63520Y41953D01*
D02*
G37*
G36*
X351496Y37591D02*
X351374D01*
Y31776D01*
X357189D01*
Y31898D01*
X356946Y33118D01*
X356470Y34267D01*
X355779Y35301D01*
X354900Y36181D01*
X353865Y36872D01*
X352716Y37348D01*
X351496Y37591D01*
D02*
G37*
G36*
X350374D02*
X350252D01*
X349032Y37348D01*
X347883Y36872D01*
X346849Y36181D01*
X345969Y35301D01*
X345278Y34267D01*
X344802Y33118D01*
X344559Y31898D01*
Y31776D01*
X350374D01*
Y37591D01*
D02*
G37*
G36*
X97438Y31200D02*
X96562D01*
X95754Y30865D01*
X95135Y30246D01*
X94800Y29438D01*
Y28562D01*
X95135Y27754D01*
X95754Y27135D01*
X96562Y26800D01*
X97438D01*
X98246Y27135D01*
X98865Y27754D01*
X99200Y28562D01*
Y29438D01*
X98865Y30246D01*
X98246Y30865D01*
X97438Y31200D01*
D02*
G37*
G36*
X357189Y30776D02*
X351374D01*
Y24961D01*
X351496D01*
X352716Y25203D01*
X353865Y25679D01*
X354900Y26370D01*
X355779Y27250D01*
X356470Y28284D01*
X356946Y29434D01*
X357189Y30654D01*
Y30776D01*
D02*
G37*
G36*
X350374D02*
X344559D01*
Y30654D01*
X344802Y29434D01*
X345278Y28284D01*
X345969Y27250D01*
X346849Y26370D01*
X347883Y25679D01*
X349032Y25203D01*
X350252Y24961D01*
X350374D01*
Y30776D01*
D02*
G37*
G36*
X145520Y31953D02*
X144480D01*
X143474Y31683D01*
X142573Y31163D01*
X141837Y30427D01*
X141317Y29526D01*
X141047Y28520D01*
Y27480D01*
X141317Y26474D01*
X141837Y25573D01*
X142573Y24837D01*
X143474Y24317D01*
X144480Y24047D01*
X145520D01*
X146526Y24317D01*
X147427Y24837D01*
X148163Y25573D01*
X148683Y26474D01*
X148953Y27480D01*
Y28520D01*
X148683Y29526D01*
X148163Y30427D01*
X147427Y31163D01*
X146526Y31683D01*
X145520Y31953D01*
D02*
G37*
G36*
Y21953D02*
X144480D01*
X143474Y21683D01*
X142573Y21163D01*
X141837Y20427D01*
X141317Y19526D01*
X141047Y18520D01*
Y17480D01*
X141317Y16474D01*
X141837Y15573D01*
X142573Y14837D01*
X143474Y14317D01*
X144480Y14047D01*
X145520D01*
X146526Y14317D01*
X147427Y14837D01*
X148163Y15573D01*
X148683Y16474D01*
X148953Y17480D01*
Y18520D01*
X148683Y19526D01*
X148163Y20427D01*
X147427Y21163D01*
X146526Y21683D01*
X145520Y21953D01*
D02*
G37*
G36*
X378672Y23047D02*
X377234D01*
X375824Y22767D01*
X374495Y22217D01*
X373300Y21418D01*
X372283Y20401D01*
X371484Y19206D01*
X370934Y17877D01*
X370654Y16467D01*
Y15029D01*
X370934Y13619D01*
X371484Y12291D01*
X372283Y11095D01*
X373300Y10078D01*
X374495Y9280D01*
X375824Y8729D01*
X377234Y8449D01*
X378672D01*
X380082Y8729D01*
X381410Y9280D01*
X382606Y10078D01*
X383622Y11095D01*
X384421Y12291D01*
X384971Y13619D01*
X385252Y15029D01*
Y16467D01*
X384971Y17877D01*
X384421Y19206D01*
X383622Y20401D01*
X382606Y21418D01*
X381410Y22217D01*
X380082Y22767D01*
X378672Y23047D01*
D02*
G37*
G36*
X16467D02*
X15029D01*
X13619Y22767D01*
X12291Y22217D01*
X11095Y21418D01*
X10078Y20401D01*
X9280Y19206D01*
X8729Y17877D01*
X8449Y16467D01*
Y15029D01*
X8729Y13619D01*
X9280Y12291D01*
X10078Y11095D01*
X11095Y10078D01*
X12291Y9280D01*
X13619Y8729D01*
X15029Y8449D01*
X16467D01*
X17877Y8729D01*
X19206Y9280D01*
X20401Y10078D01*
X21418Y11095D01*
X22217Y12291D01*
X22767Y13619D01*
X23047Y15029D01*
Y16467D01*
X22767Y17877D01*
X22217Y19206D01*
X21418Y20401D01*
X20401Y21418D01*
X19206Y22217D01*
X17877Y22767D01*
X16467Y23047D01*
D02*
G37*
%LPD*%
D11*
X125500Y239000D02*
X146000Y218500D01*
X66000Y239000D02*
X125500D01*
X146000Y202500D02*
Y218500D01*
X143215Y197835D02*
X148835D01*
X149000Y198000D01*
X141000Y200050D02*
Y216100D01*
X128100Y229000D02*
X141000Y216100D01*
X66000Y229000D02*
X128100Y229000D01*
X131400Y219000D02*
X137200Y213200D01*
Y198900D02*
Y213200D01*
Y198900D02*
X141400Y194700D01*
X66000Y219000D02*
X131400Y219000D01*
X141400Y194700D02*
X145700D01*
X141000Y200050D02*
X143215Y197835D01*
X174900Y173200D02*
X292300Y55800D01*
X339201Y53126D02*
X340500D01*
X336527Y55800D02*
X339201Y53126D01*
X292300Y55800D02*
X336527D01*
X176300Y176000D02*
X293700Y58600D01*
X336801D01*
X339201Y61000D01*
X340500D01*
X171000Y176000D02*
X176300D01*
D42*
X382000Y141228D02*
D03*
Y169772D02*
D03*
D98*
X130500Y381000D02*
Y381500D01*
Y367000D02*
Y381000D01*
Y363000D02*
Y367000D01*
X304700Y284800D02*
X343700D01*
X360800Y267700D01*
Y249100D02*
Y267700D01*
X279000Y298000D02*
X299900Y277100D01*
X330300D01*
X295000Y292000D02*
X373000D01*
X279000Y308000D02*
X295000Y292000D01*
D100*
X342000Y143000D02*
X346000Y139000D01*
X264000Y221000D02*
X342000Y143000D01*
X130500Y381000D02*
X252000D01*
X57000D02*
X130500D01*
X75788Y280511D02*
X76150Y280150D01*
X252000Y381000D02*
X264000Y369000D01*
Y221000D02*
Y369000D01*
X40000Y305000D02*
Y364000D01*
X53000Y292000D02*
X72977D01*
X40000Y305000D02*
X53000Y292000D01*
X75788Y280511D02*
Y289188D01*
X72977Y292000D02*
X75788Y289188D01*
X76150Y280150D02*
X76361D01*
X76511Y280000D02*
X86000D01*
X76361Y280150D02*
X76511Y280000D01*
X40000Y364000D02*
X57000Y381000D01*
D118*
X63000Y108000D02*
D03*
X86000Y280000D02*
D03*
X76000D02*
D03*
X66000D02*
D03*
X56000D02*
D03*
X46000D02*
D03*
X36000D02*
D03*
X26000D02*
D03*
X16000D02*
D03*
X199000D02*
D03*
Y270000D02*
D03*
X189000Y280000D02*
D03*
Y270000D02*
D03*
X179000Y280000D02*
D03*
Y270000D02*
D03*
X168971Y280000D02*
D03*
Y270000D02*
D03*
X159000Y280000D02*
D03*
Y270000D02*
D03*
X149000D02*
D03*
Y280000D02*
D03*
X138971D02*
D03*
Y270000D02*
D03*
X128971Y280000D02*
D03*
Y270000D02*
D03*
X145000Y88000D02*
D03*
Y78000D02*
D03*
Y68000D02*
D03*
Y58000D02*
D03*
Y48000D02*
D03*
Y38000D02*
D03*
Y28000D02*
D03*
Y18000D02*
D03*
X63000Y38000D02*
D03*
Y48000D02*
D03*
Y58000D02*
D03*
Y68000D02*
D03*
Y78000D02*
D03*
Y88000D02*
D03*
Y98000D02*
D03*
X66000Y259000D02*
D03*
Y249000D02*
D03*
Y239000D02*
D03*
Y229000D02*
D03*
Y219000D02*
D03*
Y209000D02*
D03*
Y199000D02*
D03*
Y189000D02*
D03*
X198000Y111000D02*
D03*
X208000D02*
D03*
X149000Y305000D02*
D03*
X159000D02*
D03*
X279000Y298000D02*
D03*
Y308000D02*
D03*
Y318000D02*
D03*
Y328000D02*
D03*
Y338000D02*
D03*
Y348000D02*
D03*
Y358000D02*
D03*
Y368000D02*
D03*
X208000Y122000D02*
D03*
X198000D02*
D03*
X188000D02*
D03*
X178000D02*
D03*
X168000D02*
D03*
X158000D02*
D03*
X148000D02*
D03*
X138000D02*
D03*
X236000Y134000D02*
D03*
Y144000D02*
D03*
Y154000D02*
D03*
Y164000D02*
D03*
Y174000D02*
D03*
Y184000D02*
D03*
Y194000D02*
D03*
Y204000D02*
D03*
X373000Y312000D02*
D03*
Y302000D02*
D03*
X245931Y214529D02*
D03*
X235931D02*
D03*
X245962Y225029D02*
D03*
X235962D02*
D03*
D119*
X373000Y346000D02*
D03*
X349378D02*
D03*
X374000Y212000D02*
D03*
X350378D02*
D03*
X102937Y205000D02*
D03*
X95063D02*
D03*
D120*
X371331Y165047D02*
D03*
Y145953D02*
D03*
D121*
X240000Y275000D02*
D03*
D122*
X384500Y119905D02*
D03*
Y108095D02*
D03*
D123*
X340500Y70842D02*
D03*
Y61000D02*
D03*
Y53126D02*
D03*
Y43284D02*
D03*
D124*
X350874Y82850D02*
D03*
Y31276D02*
D03*
D125*
X372000Y268000D02*
D03*
Y258000D02*
D03*
D126*
X24000Y352000D02*
D03*
X24000Y320504D02*
D03*
D127*
X373000Y292000D02*
D03*
D128*
X6500Y296000D02*
D03*
Y287500D02*
D03*
Y279000D02*
D03*
X39000Y258500D02*
D03*
Y264500D02*
D03*
Y252000D02*
D03*
Y271000D02*
D03*
X31000D02*
D03*
X6500D02*
D03*
X15000D02*
D03*
X23000D02*
D03*
X39000Y245000D02*
D03*
Y238000D02*
D03*
Y231000D02*
D03*
Y224000D02*
D03*
Y216000D02*
D03*
Y209000D02*
D03*
Y202000D02*
D03*
Y195000D02*
D03*
Y188000D02*
D03*
X137500Y233000D02*
D03*
X149000Y198000D02*
D03*
X146000Y202500D02*
D03*
X342000Y143000D02*
D03*
X119000Y211000D02*
D03*
X99000Y215000D02*
D03*
X149000Y154000D02*
D03*
X245000Y118000D02*
D03*
X242000Y121000D02*
D03*
X97000Y29000D02*
D03*
Y54000D02*
D03*
Y78000D02*
D03*
X23000Y48000D02*
D03*
X19000D02*
D03*
X101000Y331000D02*
D03*
Y334000D02*
D03*
X186500Y347000D02*
D03*
X179500D02*
D03*
X294000Y17000D02*
D03*
Y36000D02*
D03*
X293000Y52000D02*
D03*
X295000Y74000D02*
D03*
Y93000D02*
D03*
X294000Y112000D02*
D03*
X295000Y131000D02*
D03*
Y150000D02*
D03*
Y169000D02*
D03*
X290000Y183000D02*
D03*
X196000Y20000D02*
D03*
Y44000D02*
D03*
Y68000D02*
D03*
Y92000D02*
D03*
X7000Y47000D02*
D03*
Y58000D02*
D03*
Y68000D02*
D03*
Y138000D02*
D03*
Y128000D02*
D03*
Y118000D02*
D03*
Y78000D02*
D03*
Y88000D02*
D03*
Y98000D02*
D03*
Y108000D02*
D03*
X215000Y255000D02*
D03*
X199000D02*
D03*
X155000Y191000D02*
D03*
Y204000D02*
D03*
X164000Y191000D02*
D03*
Y204000D02*
D03*
X116000Y211000D02*
D03*
X88000Y224000D02*
D03*
Y234000D02*
D03*
Y245000D02*
D03*
X99000D02*
D03*
X110000D02*
D03*
Y224000D02*
D03*
Y234000D02*
D03*
X99000D02*
D03*
Y224000D02*
D03*
X80000Y212000D02*
D03*
X14000Y301000D02*
D03*
Y314000D02*
D03*
Y326000D02*
D03*
Y339000D02*
D03*
Y351000D02*
D03*
Y364000D02*
D03*
X73000Y365000D02*
D03*
X54000D02*
D03*
X85000Y316000D02*
D03*
X93000D02*
D03*
X76000Y352500D02*
D03*
Y346500D02*
D03*
X164500Y347000D02*
D03*
X172000D02*
D03*
X171000Y388500D02*
D03*
X180000D02*
D03*
X161500D02*
D03*
X148000Y357500D02*
D03*
X142000D02*
D03*
X136000D02*
D03*
X128500Y211500D02*
D03*
X124000D02*
D03*
X127000Y223000D02*
D03*
X130000D02*
D03*
X123500D02*
D03*
X145700Y194700D02*
D03*
X130500Y367000D02*
D03*
Y363000D02*
D03*
X304700Y284800D02*
D03*
X360800Y249100D02*
D03*
X330300Y277100D02*
D03*
X349000Y93000D02*
D03*
X342000D02*
D03*
X336000Y96000D02*
D03*
X355000D02*
D03*
X350000Y135000D02*
D03*
Y139000D02*
D03*
X342000Y135000D02*
D03*
X346000D02*
D03*
X342000Y139000D02*
D03*
X346000D02*
D03*
Y143000D02*
D03*
X174900Y173200D02*
D03*
X171000Y176000D02*
D03*
X53100Y31800D02*
D03*
X53200Y38500D02*
D03*
X23500Y146000D02*
D03*
X15000D02*
D03*
X7000D02*
D03*
X32000D02*
D03*
Y153000D02*
D03*
Y160000D02*
D03*
Y167000D02*
D03*
X110000Y166000D02*
D03*
X126000Y175600D02*
D03*
X133300Y176700D02*
D03*
X136800Y182100D02*
D03*
X117600Y174300D02*
D03*
X102000Y175000D02*
D03*
X95000D02*
D03*
X88000Y174000D02*
D03*
X46000D02*
D03*
X53000D02*
D03*
X60000D02*
D03*
X67000D02*
D03*
X74000D02*
D03*
X81000D02*
D03*
X39000D02*
D03*
X32000D02*
D03*
X113000Y189000D02*
D03*
X106000D02*
D03*
X99000D02*
D03*
X92000D02*
D03*
X86000Y185000D02*
D03*
X81000Y181000D02*
D03*
X74000D02*
D03*
X67000D02*
D03*
X60000D02*
D03*
X53000D02*
D03*
X46000D02*
D03*
X39000D02*
D03*
X136800Y137800D02*
D03*
X143100Y137400D02*
D03*
X148500Y142100D02*
D03*
X147700Y148700D02*
D03*
X120100Y158700D02*
D03*
X118400Y164900D02*
D03*
X122600Y170200D02*
D03*
X128700Y170300D02*
D03*
X134900Y170600D02*
D03*
X140500Y172700D02*
D03*
X143600Y177900D02*
D03*
X129600Y149200D02*
D03*
X138000Y148800D02*
D03*
X130700Y158300D02*
D03*
X144000Y167000D02*
D03*
D149*
X346500Y138500D02*
D03*
M02*
